<?xml version="1.0" encoding="UTF-8"?>
<svg id="_图层_2" data-name="图层_2" xmlns="http://www.w3.org/2000/svg" viewBox="0 0 474.99 121.29">
  <g id="Layer_1">
    <g>
      <g>
        <path d="M27.22,43.15c5.71,9.67,12.98,18.67,22.23,25.17,3.72,2.64,7.88,4.67,12.12,6.3,11.56,4.5,24.62,5.99,36.65,2.58,1.91-.56,3.81-1.27,5.63-2.13.05-.24.09-.47.14-.71-3,.98-6.19,1.6-9.32,1.94-10.8,1.11-21.79-.88-31.8-4.95-3.99-1.58-7.89-3.47-11.42-5.92-9.01-6.17-16.34-14.45-22.76-23.23-1.31-1.77-2.54-3.6-3.74-5.45-.71-1.15-1.48-2.29-2.14-3.48-.11.11-.21.22-.32.33.48,1.23,1.07,2.43,1.6,3.62.96,2.02,2.03,3.98,3.14,5.92Z" fill="#d1e7f4"/>
        <path d="M78.45,92.32c-14.75,1.54-30.11-.3-43-7.72-11.45-7-19.68-19.8-24.34-32.5-.2.54-.39,1.09-.57,1.64,1.93,11.16,7.68,22.58,15.59,30.32,4.82,4.81,10.96,8.3,17.38,10.46,11.39,4.09,23.94,4.55,35.63,2.3,7-1.36,13.78-3.77,19.98-7.24.4-.84.78-1.7,1.14-2.56-7.01,2.67-14.4,4.52-21.81,5.3Z" fill="#a4d0ea"/>
        <path d="M36.38,48.2c7.89-14.5,22.15-26.85,39.17-26.99-1.06-.4-2.12-.75-3.21-1.06-9.44-.73-19.08,2.95-26.51,8.74-9.19,7.24-16.5,17.5-19.4,28.88-4.17,16.96-.98,35.37,7.26,50.6,1.34,2.42,2.82,4.77,4.45,7,.74.31,1.48.61,2.23.88.03.01.06.02.09.03-10.7-20.07-14.87-48.4-4.09-68.07Z" fill="#208dcd"/>
        <path d="M79.95,27.48c-8.42,6.6-15.43,14.92-20.69,24.25-10.34,17.75-10.37,40.6-.9,58.69,1.46,2.76,3.13,5.45,5.11,7.88.42-.07.83-.15,1.25-.24-6.23-11.04-9.06-24.57-8.93-36.98.06-3.55.4-7.18,1-10.69,1.94-10.64,7.12-20.53,13.42-29.27,3.74-5.07,8.69-10.99,14.12-15.41-.33-.22-.67-.44-1.01-.66-1.16.77-2.28,1.59-3.38,2.42Z" fill="#7bbae4"/>
        <path d="M85.42,25.48c11.36,7.93,20.26,19.65,23.76,33.16,3.21,12.14,1.34,25.72-5.13,36.56-15.56,26.61-53.49,33.61-78.99,17.53-6.05-3.72-11.43-8.72-15.51-14.56C-7.9,73.15-.78,37.38,25.59,21.61c18.42-11.28,42.69-8.25,59.83,3.86h0ZM84.96,26.14c-11-7.69-25.27-9.65-38.02-6.06C14.39,28.81-2.5,65.07,14.96,94.69c5.7,9.78,14.71,17.7,25.42,21.55,36.49,12.63,67.4-21.01,63.77-56.68-1.29-13.38-7.99-25.78-19.19-33.42h0Z" fill="#222b61"/>
        <circle cx="33.75" cy="105.09" r="4.46" fill="#208dcd"/>
        <circle cx="77.51" cy="31.4" r="3.66" fill="#7bbae4"/>
        <circle cx="95.32" cy="76.5" r="3.66" fill="#d1e7f4"/>
      </g>
      <path d="M7.96,8.57c28.94-9.48,61.38-11.59,89.99.67,21.57,9.51,38.8,27.1,50.98,47.03,3.57,5.91,6.74,12.1,9.3,18.54.71,1.58,1.43,4.14,1.81,5.93-9.04,11.13-20.53,20.19-32.89,27.3-11.47,6.49-24.18,10.93-37.24,12.29,18.65-4.72,35.11-15.78,48.06-29.73,4.15-4.51,8.11-9.32,11.36-14.49,0,0-.82,4.82-.82,4.82-4.06-13.86-11.1-26.87-19.82-38.38C99.88,3.35,52.78-3.26,7.96,8.57h0Z" fill="#208dcd"/>
      <path d="M7.96,8.57C41.19-4.96,81.8-3.18,111.15,19.06c9.63,7.3,18.93,16.84,26.07,26.56,7.81,10.62,14.94,24.66,9.94,37.92-3.79,10.05-15.37,18.13-24.15,23.7-10.08,6.39-21.36,10.89-33.1,13.09,12.89-3.18,24.88-10.14,34.95-18.55,7.84-6.54,11.93-14.86,12.79-26.37,1.12-14.88-12.62-39.19-38.76-56.94-14.18-9.64-35.74-13.79-52.17-14.2-7.61-.19-15.24.29-22.78,1.3-5.38.73-10.72,1.73-16.01,3Z" fill="#222b61"/>
    </g>
    <g>
      <path d="M192.58,54.44V22.24h10.67c2.22,0,4.31.42,6.25,1.25s3.65,1.99,5.13,3.47,2.64,3.19,3.47,5.13,1.25,4.02,1.25,6.25-.42,4.31-1.25,6.25c-.84,1.94-1.99,3.65-3.47,5.13-1.48,1.48-3.19,2.64-5.13,3.47-1.94.84-4.02,1.25-6.25,1.25h-10.67ZM198.93,48.09h4.33c1.32,0,2.56-.25,3.74-.76,1.17-.51,2.21-1.2,3.12-2.09.9-.89,1.61-1.92,2.13-3.1s.77-2.45.77-3.8-.26-2.61-.77-3.78-1.22-2.21-2.12-3.11c-.9-.9-1.93-1.6-3.1-2.1-1.17-.51-2.43-.76-3.76-.76h-4.33v19.51Z" fill="#212e64"/>
      <path d="M238.04,55.04c-2.18,0-4.22-.43-6.14-1.3-1.92-.87-3.6-2.07-5.06-3.6-1.46-1.53-2.6-3.31-3.43-5.32-.83-2.02-1.24-4.18-1.24-6.48s.41-4.46,1.24-6.48c.83-2.02,1.97-3.79,3.43-5.33s3.14-2.73,5.06-3.6,3.96-1.3,6.14-1.3,4.25.43,6.16,1.3c1.92.87,3.6,2.07,5.06,3.6,1.46,1.53,2.6,3.31,3.42,5.33.82,2.02,1.23,4.17,1.23,6.48s-.41,4.46-1.23,6.48c-.82,2.02-1.96,3.79-3.42,5.32-1.46,1.53-3.14,2.73-5.06,3.6-1.92.87-3.97,1.3-6.16,1.3ZM238.04,48.69c1.3,0,2.53-.27,3.68-.82,1.15-.54,2.16-1.29,3.04-2.24.87-.95,1.56-2.05,2.06-3.29.5-1.24.75-2.58.75-4s-.25-2.76-.75-4.01c-.5-1.25-1.19-2.35-2.06-3.29-.87-.94-1.89-1.69-3.04-2.23-1.15-.54-2.38-.82-3.68-.82s-2.53.27-3.68.82c-1.15.54-2.16,1.29-3.04,2.24-.87.95-1.56,2.05-2.06,3.29-.5,1.24-.75,2.58-.75,4s.25,2.76.75,4.01c.5,1.25,1.18,2.35,2.06,3.29.87.94,1.89,1.69,3.04,2.23,1.15.54,2.38.82,3.68.82Z" fill="#212e64"/>
      <path d="M256.65,54.44l6.26-32.21h5.36l7.48,19.72,7.5-19.72h5.36l6.26,32.21h-6.49l-3.57-18.47-6.88,18.15h-4.37l-6.86-18.15-3.59,18.47h-6.46Z" fill="#212e64"/>
      <path d="M300.17,54.44V22.24h6.35v32.21h-6.35Z" fill="#212e64"/>
      <path d="M312.73,54.44V22.24h6.86l12.56,20.73v-20.73h6.35v32.21h-6.86l-12.56-20.73v20.73h-6.35Z" fill="#212e64"/>
      <path d="M358.97,55.04c-2.18,0-4.22-.43-6.14-1.3-1.92-.87-3.6-2.07-5.06-3.6-1.46-1.53-2.6-3.31-3.43-5.32-.83-2.02-1.24-4.18-1.24-6.48s.41-4.46,1.24-6.48c.83-2.02,1.97-3.79,3.43-5.33,1.46-1.53,3.14-2.73,5.06-3.6s3.96-1.3,6.14-1.3,4.25.43,6.16,1.3,3.6,2.07,5.06,3.6c1.46,1.53,2.6,3.31,3.42,5.33.82,2.02,1.23,4.17,1.23,6.48s-.41,4.46-1.23,6.48c-.82,2.02-1.96,3.79-3.42,5.32-1.46,1.53-3.14,2.73-5.06,3.6-1.92.87-3.97,1.3-6.16,1.3ZM358.97,48.69c1.3,0,2.53-.27,3.68-.82,1.15-.54,2.16-1.29,3.04-2.24.87-.95,1.56-2.05,2.06-3.29.5-1.24.75-2.58.75-4s-.25-2.76-.75-4.01c-.5-1.25-1.19-2.35-2.06-3.29-.87-.94-1.89-1.69-3.04-2.23-1.15-.54-2.38-.82-3.68-.82s-2.53.27-3.68.82c-1.15.54-2.16,1.29-3.04,2.24-.87.95-1.56,2.05-2.06,3.29-.5,1.24-.75,2.58-.75,4s.25,2.76.75,4.01c.5,1.25,1.18,2.35,2.06,3.29.87.94,1.89,1.69,3.04,2.23,1.15.54,2.38.82,3.68.82Z" fill="#212e64"/>
      <path d="M379.44,37.47h14.72v6.35h-14.72v-6.35Z" fill="#f0555d"/>
      <path d="M411.39,55.04c-1.81,0-3.54-.28-5.19-.85-1.65-.57-3.09-1.39-4.32-2.46s-2.12-2.35-2.66-3.82l5.96-2.21c.18.52.57,1.01,1.15,1.46.58.45,1.31.82,2.18,1.1.87.28,1.83.43,2.88.43s1.94-.15,2.82-.45,1.59-.72,2.14-1.25c.54-.54.82-1.16.82-1.89s-.28-1.32-.85-1.8c-.57-.47-1.3-.85-2.19-1.14-.89-.28-1.8-.5-2.74-.66-2.32-.34-4.39-.89-6.22-1.64-1.83-.76-3.28-1.81-4.34-3.15-1.06-1.34-1.59-3.05-1.59-5.12s.56-3.74,1.69-5.22c1.13-1.49,2.61-2.65,4.46-3.47,1.85-.83,3.85-1.24,5.99-1.24,1.78,0,3.5.28,5.15.85,1.66.57,3.1,1.39,4.34,2.46,1.23,1.07,2.12,2.36,2.66,3.86l-5.96,2.16c-.18-.52-.57-1-1.15-1.45-.58-.45-1.31-.81-2.18-1.08-.87-.28-1.83-.41-2.85-.41-.98-.02-1.91.13-2.8.44s-1.6.73-2.16,1.26c-.56.54-.84,1.15-.84,1.84,0,.9.26,1.59.79,2.05.53.46,1.23.79,2.1.99.87.2,1.84.38,2.9.53,2.18.32,4.19.89,6.03,1.71,1.84.82,3.32,1.91,4.43,3.27,1.11,1.36,1.67,3.01,1.67,4.96s-.56,3.73-1.68,5.22c-1.12,1.49-2.6,2.65-4.44,3.47-1.84.83-3.84,1.24-6,1.24Z" fill="#f0555d"/>
      <path d="M428.65,54.44V22.24h20.38v6.35h-14.03v5.43h10.95v6.35h-10.95v7.73h14.03v6.35h-20.38Z" fill="#f0555d"/>
      <path d="M454.14,54.44V22.24h20.38v6.35h-14.03v5.43h10.95v6.35h-10.95v7.73h14.03v6.35h-20.38Z" fill="#f0555d"/>
    </g>
    <g>
      <path d="M192.1,54.77V22.5h10.69c2.23,0,4.31.42,6.26,1.26,1.94.84,3.66,2,5.14,3.48,1.48,1.48,2.64,3.2,3.48,5.14.84,1.94,1.26,4.03,1.26,6.26s-.42,4.31-1.26,6.26c-.84,1.94-2,3.66-3.48,5.14-1.48,1.48-3.2,2.64-5.14,3.48-1.94.84-4.03,1.26-6.26,1.26h-10.69ZM198.46,48.41h4.33c1.32,0,2.57-.25,3.74-.76,1.18-.51,2.22-1.21,3.12-2.1.91-.89,1.62-1.93,2.13-3.11.51-1.18.77-2.45.77-3.8s-.26-2.62-.77-3.79c-.51-1.18-1.22-2.21-2.12-3.11-.9-.9-1.94-1.6-3.11-2.11-1.18-.51-2.43-.76-3.77-.76h-4.33v19.54Z" fill="#212e64"/>
      <path d="M237.64,55.37c-2.18,0-4.23-.43-6.15-1.3-1.92-.87-3.61-2.07-5.07-3.61-1.46-1.54-2.6-3.31-3.43-5.34-.83-2.02-1.24-4.18-1.24-6.49s.41-4.47,1.24-6.49c.83-2.02,1.97-3.8,3.43-5.34,1.46-1.54,3.15-2.74,5.07-3.61,1.92-.87,3.97-1.3,6.15-1.3s4.26.43,6.18,1.3c1.92.87,3.61,2.07,5.07,3.61,1.46,1.54,2.6,3.32,3.42,5.34.82,2.02,1.23,4.18,1.23,6.49s-.41,4.47-1.23,6.49c-.82,2.02-1.96,3.8-3.42,5.34-1.46,1.54-3.15,2.74-5.07,3.61-1.92.87-3.98,1.3-6.18,1.3ZM237.64,49.01c1.31,0,2.54-.27,3.69-.82,1.15-.55,2.17-1.29,3.04-2.25.88-.95,1.56-2.05,2.06-3.3.5-1.24.75-2.58.75-4.01s-.25-2.77-.75-4.02c-.5-1.25-1.19-2.35-2.06-3.3-.88-.94-1.89-1.69-3.04-2.24-1.15-.55-2.38-.82-3.69-.82s-2.54.27-3.69.82c-1.15.55-2.17,1.29-3.04,2.25-.88.95-1.56,2.05-2.06,3.3-.5,1.24-.75,2.58-.75,4.01s.25,2.77.75,4.02c.5,1.25,1.19,2.35,2.06,3.3.88.94,1.89,1.69,3.04,2.24,1.15.55,2.38.82,3.69.82Z" fill="#212e64"/>
      <path d="M256.28,54.77l6.27-32.27h5.37l7.49,19.75,7.51-19.75h5.37l6.27,32.27h-6.5l-3.57-18.51-6.89,18.18h-4.38l-6.87-18.18-3.6,18.51h-6.48Z" fill="#212e64"/>
      <path d="M299.89,54.77V22.5h6.36v32.27h-6.36Z" fill="#212e64"/>
      <path d="M312.47,54.77V22.5h6.87l12.58,20.77v-20.77h6.36v32.27h-6.87l-12.58-20.77v20.77h-6.36Z" fill="#212e64"/>
      <path d="M358.79,55.37c-2.18,0-4.23-.43-6.15-1.3-1.92-.87-3.61-2.07-5.07-3.61-1.46-1.54-2.6-3.31-3.43-5.34-.83-2.02-1.24-4.18-1.24-6.49s.41-4.47,1.24-6.49c.83-2.02,1.97-3.8,3.43-5.34,1.46-1.54,3.15-2.74,5.07-3.61,1.92-.87,3.97-1.3,6.15-1.3s4.26.43,6.18,1.3c1.92.87,3.61,2.07,5.07,3.61,1.46,1.54,2.6,3.32,3.42,5.34.82,2.02,1.23,4.18,1.23,6.49s-.41,4.47-1.23,6.49c-.82,2.02-1.96,3.8-3.42,5.34-1.46,1.54-3.15,2.74-5.07,3.61-1.92.87-3.98,1.3-6.18,1.3ZM358.79,49.01c1.31,0,2.54-.27,3.69-.82,1.15-.55,2.17-1.29,3.04-2.25.88-.95,1.56-2.05,2.06-3.3.5-1.24.75-2.58.75-4.01s-.25-2.77-.75-4.02c-.5-1.25-1.19-2.35-2.06-3.3-.88-.94-1.89-1.69-3.04-2.24-1.15-.55-2.38-.82-3.69-.82s-2.54.27-3.69.82c-1.15.55-2.17,1.29-3.04,2.25-.88.95-1.56,2.05-2.06,3.3-.5,1.24-.75,2.58-.75,4.01s.25,2.77.75,4.02c.5,1.25,1.19,2.35,2.06,3.3.88.94,1.89,1.69,3.04,2.24,1.15.55,2.38.82,3.69.82Z" fill="#212e64"/>
      <path d="M379.3,37.76h14.75v6.36h-14.75v-6.36Z" fill="#f0555d"/>
      <path d="M411.32,55.37c-1.81,0-3.55-.28-5.2-.85-1.65-.57-3.1-1.39-4.33-2.47-1.24-1.08-2.12-2.35-2.66-3.83l5.97-2.21c.18.52.57,1.01,1.15,1.46.58.45,1.31.82,2.19,1.11.88.28,1.84.43,2.88.43s1.94-.15,2.82-.45c.88-.3,1.6-.72,2.14-1.26.55-.54.82-1.17.82-1.89s-.28-1.32-.85-1.8c-.57-.48-1.3-.86-2.19-1.14-.89-.28-1.81-.5-2.74-.66-2.32-.34-4.4-.89-6.23-1.65-1.84-.76-3.28-1.81-4.34-3.16-1.06-1.34-1.59-3.05-1.59-5.13s.56-3.74,1.69-5.23c1.13-1.49,2.62-2.65,4.47-3.48,1.85-.83,3.85-1.24,6-1.24,1.78,0,3.5.28,5.16.85,1.66.57,3.11,1.39,4.34,2.47,1.24,1.08,2.12,2.37,2.66,3.87l-5.97,2.17c-.18-.52-.57-1.01-1.15-1.45-.58-.45-1.31-.81-2.19-1.08-.88-.28-1.83-.41-2.86-.41-.98-.02-1.92.13-2.8.44-.88.31-1.61.73-2.17,1.27-.56.54-.84,1.15-.84,1.84,0,.91.27,1.59.8,2.05.53.46,1.23.79,2.11.99.88.2,1.84.38,2.9.53,2.18.32,4.19.9,6.04,1.72,1.84.82,3.32,1.91,4.44,3.27,1.11,1.36,1.67,3.02,1.67,4.97s-.56,3.74-1.68,5.23c-1.12,1.49-2.6,2.65-4.45,3.48-1.84.83-3.85,1.24-6.02,1.24Z" fill="#f0555d"/>
      <path d="M428.6,54.77V22.5h20.42v6.36h-14.06v5.44h10.97v6.36h-10.97v7.74h14.06v6.36h-20.42Z" fill="#f0555d"/>
      <path d="M454.14,54.77V22.5h20.42v6.36h-14.06v5.44h10.97v6.36h-10.97v7.74h14.06v6.36h-20.42Z" fill="#f0555d"/>
    </g>
    <g>
      <path d="M192.45,83.35v-11.22h3.72c.77,0,1.5.15,2.18.44.68.29,1.27.69,1.79,1.21.52.52.92,1.11,1.21,1.79.29.68.44,1.4.44,2.18s-.15,1.5-.44,2.18-.69,1.27-1.21,1.79-1.11.92-1.79,1.21-1.4.44-2.18.44h-3.72ZM194.66,81.13h1.51c.46,0,.89-.09,1.3-.26s.77-.42,1.09-.73c.32-.31.56-.67.74-1.08.18-.41.27-.85.27-1.32s-.09-.91-.27-1.32c-.18-.41-.42-.77-.74-1.08s-.67-.56-1.08-.73-.85-.26-1.31-.26h-1.51v6.8Z" fill="#212e64"/>
      <path d="M206.75,83.56c-.74,0-1.41-.19-2.02-.57s-1.09-.89-1.45-1.53c-.36-.64-.54-1.35-.54-2.12,0-.59.1-1.14.31-1.65s.5-.96.86-1.35c.37-.39.79-.69,1.28-.91.49-.22,1-.33,1.55-.33.6,0,1.16.12,1.66.36.5.24.94.58,1.3,1.01.36.43.63.94.81,1.51s.24,1.18.2,1.84h-6.54c.06.45.21.86.45,1.21.23.36.54.64.9.85.37.21.77.32,1.22.32.48,0,.92-.12,1.31-.37.39-.25.71-.59.95-1.02l1.37.32c-.32.71-.8,1.29-1.45,1.74-.65.45-1.37.68-2.17.68ZM204.13,78.77h5.23c-.04-.45-.19-.86-.43-1.23-.25-.37-.56-.67-.94-.89-.38-.22-.79-.34-1.24-.34s-.86.11-1.23.33c-.37.22-.68.51-.93.89-.24.37-.39.79-.45,1.25Z" fill="#212e64"/>
      <path d="M216.12,76.68h-1.82v6.67h-1.35v-6.67s-1.37,0-1.37,0v-1.35h1.38v-2.52s1.34,0,1.34,0v2.52h1.83v1.35Z" fill="#212e64"/>
      <path d="M220.88,83.56c-.74,0-1.41-.19-2.02-.57s-1.09-.89-1.45-1.53c-.36-.64-.54-1.35-.54-2.12,0-.59.1-1.14.31-1.65s.5-.96.86-1.35c.37-.39.79-.69,1.28-.91.49-.22,1-.33,1.55-.33.6,0,1.16.12,1.66.36.5.24.94.58,1.3,1.01.36.43.63.94.81,1.51s.24,1.18.2,1.84h-6.54c.06.45.21.86.45,1.21.23.36.54.64.9.85.37.21.77.32,1.22.32.48,0,.92-.12,1.31-.37.39-.25.71-.59.95-1.02l1.37.32c-.32.71-.8,1.29-1.45,1.74-.65.45-1.37.68-2.17.68ZM218.26,78.77h5.23c-.04-.45-.19-.86-.43-1.23-.25-.37-.56-.67-.94-.89-.38-.22-.79-.34-1.24-.34s-.86.11-1.23.33c-.37.22-.68.51-.93.89-.24.37-.39.79-.45,1.25Z" fill="#212e64"/>
      <path d="M231.67,81.23l1.2.65c-.36.51-.82.91-1.38,1.22-.56.3-1.16.46-1.82.46-.74,0-1.41-.19-2.02-.57s-1.09-.89-1.45-1.53c-.36-.64-.54-1.35-.54-2.12,0-.59.1-1.14.31-1.65s.5-.96.86-1.35c.37-.39.79-.69,1.28-.91.49-.22,1-.33,1.55-.33.65,0,1.26.15,1.82.46.56.3,1.02.71,1.38,1.23l-1.2.65c-.26-.31-.56-.56-.91-.73-.35-.17-.71-.26-1.08-.26-.5,0-.95.13-1.35.4-.4.26-.72.62-.96,1.05-.24.44-.35.92-.35,1.43s.12,1,.36,1.43c.24.44.56.78.96,1.05.4.26.85.39,1.34.39.4,0,.77-.09,1.11-.27s.64-.42.88-.71Z" fill="#212e64"/>
      <path d="M238.47,76.68h-1.82v6.67h-1.35v-6.67s-1.37,0-1.37,0v-1.35h1.38v-2.52s1.34,0,1.34,0v2.52h1.83v1.35Z" fill="#212e64"/>
      <path d="M240.52,74.03c-.21,0-.39-.07-.54-.21-.14-.14-.22-.31-.22-.52s.07-.38.22-.52c.14-.14.32-.21.53-.21s.38.07.53.21.22.31.22.52-.07.38-.21.52c-.14.14-.32.21-.52.21ZM239.83,75.33h1.35v8.01h-1.35v-8.01Z" fill="#212e64"/>
      <path d="M246.52,83.56c-.74,0-1.41-.19-2.02-.57s-1.09-.89-1.45-1.53c-.36-.64-.54-1.35-.54-2.12,0-.59.1-1.14.31-1.65s.5-.96.86-1.35c.37-.39.79-.69,1.28-.91.49-.22,1-.33,1.55-.33.74,0,1.41.19,2.02.57.61.38,1.09.89,1.45,1.53.36.64.54,1.35.54,2.13,0,.58-.1,1.13-.31,1.63-.21.51-.5.96-.86,1.34-.37.39-.79.69-1.27.91-.48.22-1,.33-1.56.33ZM246.52,82.21c.5,0,.95-.13,1.36-.4s.72-.61.95-1.05c.23-.44.35-.91.35-1.42s-.12-1-.36-1.44c-.24-.44-.56-.79-.96-1.05-.4-.26-.85-.39-1.35-.39s-.95.13-1.35.4-.72.62-.95,1.05c-.24.44-.35.92-.35,1.43s.12,1.02.36,1.45c.24.44.56.78.97,1.03.41.25.85.38,1.33.38Z" fill="#212e64"/>
      <path d="M258.95,78.36v4.98h-1.35v-4.69c0-.41-.1-.77-.3-1.11-.2-.33-.46-.59-.79-.79-.33-.19-.7-.29-1.11-.29s-.77.1-1.1.29c-.33.2-.6.46-.8.79-.2.33-.3.7-.3,1.11v4.69h-1.35v-8.01h1.35v1c.28-.37.64-.67,1.07-.89s.9-.33,1.41-.33c.6,0,1.14.15,1.64.44.49.29.89.68,1.18,1.17.29.49.44,1.04.44,1.64Z" fill="#212e64"/>
      <path d="M269.61,83.56c-.76,0-1.47-.15-2.14-.45-.67-.3-1.26-.72-1.76-1.25-.51-.53-.91-1.15-1.19-1.85-.29-.7-.43-1.45-.43-2.26s.14-1.55.43-2.26c.29-.7.69-1.32,1.19-1.86.51-.53,1.1-.95,1.76-1.25.67-.3,1.38-.45,2.14-.45s1.48.15,2.15.45c.67.3,1.26.72,1.76,1.25.51.53.9,1.15,1.19,1.86s.43,1.45.43,2.26-.14,1.55-.43,2.26c-.29.7-.68,1.32-1.19,1.85-.51.53-1.1.95-1.76,1.25-.67.3-1.38.45-2.15.45ZM269.61,81.6c.49,0,.95-.1,1.39-.3.43-.2.81-.48,1.14-.84s.59-.77.77-1.23.28-.96.28-1.49-.09-1.03-.28-1.49c-.19-.47-.44-.88-.77-1.23-.33-.35-.71-.63-1.14-.83-.43-.2-.89-.3-1.38-.3s-.95.1-1.39.3-.81.48-1.14.84c-.33.36-.59.77-.77,1.23-.18.46-.28.96-.28,1.49s.09,1.03.28,1.5c.19.46.44.87.77,1.23.33.36.71.63,1.14.83.43.2.89.3,1.38.3Z" fill="#212e64"/>
      <path d="M278.56,73.35v1.98h2.35v1.35h-2.35v6.67h-1.35v-6.67h-1.03v-1.35h1.03v-1.98c0-.41.1-.78.3-1.12.2-.33.47-.6.81-.8.34-.2.71-.3,1.12-.3.3,0,.59.06.87.18.28.12.53.3.75.53l-.96.95c-.07-.1-.17-.18-.29-.24-.12-.06-.24-.08-.37-.08-.24,0-.45.09-.62.26s-.26.38-.26.62Z" fill="#212e64"/>
      <path d="M286.07,83.35l2.18-11.22h1.62l2.73,7.19,2.73-7.19h1.62l2.18,11.22h-2l-1.35-6.94-2.52,6.68h-1.34l-2.52-6.68-1.34,6.94h-2Z" fill="#212e64"/>
      <path d="M300.73,80.3v-4.97h1.35v4.67c0,.41.1.77.3,1.11.2.33.46.59.8.79.33.19.7.29,1.1.29s.77-.1,1.1-.29.59-.46.79-.79c.2-.33.3-.7.3-1.11v-4.67h1.35v8.01s-1.34,0-1.34,0v-1.02c-.29.37-.65.67-1.08.89-.43.22-.9.33-1.4.33-.6,0-1.14-.15-1.64-.44s-.89-.68-1.18-1.17c-.29-.49-.44-1.04-.44-1.64Z" fill="#212e64"/>
      <path d="M309.51,83.35v-12.02h1.35v12.02h-1.35Z" fill="#212e64"/>
      <path d="M316.93,76.68h-1.82v6.67h-1.35v-6.67s-1.37,0-1.37,0v-1.35h1.38v-2.52s1.34,0,1.34,0v2.52h1.83v1.35Z" fill="#212e64"/>
      <path d="M318.98,74.03c-.21,0-.39-.07-.54-.21-.14-.14-.22-.31-.22-.52s.07-.38.22-.52c.14-.14.32-.21.53-.21s.38.07.53.21.22.31.22.52-.07.38-.21.52c-.14.14-.32.21-.52.21ZM318.29,75.33h1.35v8.01h-1.35v-8.01Z" fill="#212e64"/>
      <path d="M321.56,77.87h5.13v1.35h-5.13v-1.35Z" fill="#212e64"/>
      <path d="M328.61,83.35v-12.02h1.35v12.02h-1.35Z" fill="#212e64"/>
      <path d="M338.26,75.33h1.35v8.01h-1.35l-.06-1.35c-.25.46-.6.84-1.04,1.13s-.97.43-1.57.43-1.14-.11-1.65-.33c-.51-.22-.97-.53-1.36-.92s-.7-.85-.92-1.36c-.22-.51-.33-1.07-.33-1.66s.11-1.11.32-1.62c.21-.51.51-.95.89-1.33.38-.38.82-.68,1.33-.9.5-.22,1.04-.32,1.62-.32.63,0,1.18.15,1.66.44.48.3.86.68,1.15,1.15l-.05-1.37ZM335.56,82.25c.53,0,.99-.13,1.37-.39s.69-.61.9-1.05c.21-.44.32-.93.32-1.47s-.11-1.04-.32-1.48-.51-.79-.9-1.05c-.39-.26-.84-.39-1.37-.39s-1.01.13-1.44.39-.78.61-1.03,1.05c-.25.44-.38.93-.38,1.47s.13,1.03.39,1.47c.26.44.61.79,1.04,1.05.43.26.91.39,1.42.39Z" fill="#212e64"/>
      <path d="M346.45,75.33h1.43l-4.38,12.02h-1.43l1.45-4.01-2.88-8.01h1.47l2.08,6.16,2.26-6.16Z" fill="#212e64"/>
      <path d="M352.44,83.56c-.74,0-1.41-.19-2.02-.57s-1.09-.89-1.45-1.53c-.36-.64-.54-1.35-.54-2.12,0-.59.1-1.14.31-1.65s.5-.96.86-1.35c.37-.39.79-.69,1.28-.91.49-.22,1-.33,1.55-.33.6,0,1.16.12,1.66.36.5.24.94.58,1.3,1.01.36.43.63.94.81,1.51s.24,1.18.2,1.84h-6.54c.06.45.21.86.45,1.21.23.36.54.64.9.85.37.21.77.32,1.22.32.48,0,.92-.12,1.31-.37.39-.25.71-.59.95-1.02l1.37.32c-.32.71-.8,1.29-1.45,1.74-.65.45-1.37.68-2.17.68ZM349.83,78.77h5.23c-.04-.45-.19-.86-.43-1.23-.25-.37-.56-.67-.94-.89-.38-.22-.79-.34-1.24-.34s-.86.11-1.23.33c-.37.22-.68.51-.93.89-.24.37-.39.79-.45,1.25Z" fill="#212e64"/>
      <path d="M357.77,83.35v-8.01h1.35v1c.28-.37.64-.67,1.07-.89s.9-.33,1.41-.33c.31,0,.61.04.9.12l-.55,1.35c-.22-.07-.43-.1-.64-.1-.4,0-.77.1-1.1.29-.33.2-.6.46-.8.79-.2.33-.3.7-.3,1.11v4.69h-1.35Z" fill="#212e64"/>
      <path d="M367.71,83.35v-11.22h2.21v11.22h-2.21Z" fill="#212e64"/>
      <path d="M372.08,83.35v-11.22h1.46l5.6,8.78v-8.78h1.35v11.22h-1.45l-5.61-8.78v8.78h-1.35Z" fill="#212e64"/>
      <path d="M386.56,76.68h-1.82v6.67h-1.35v-6.67s-1.37,0-1.37,0v-1.35h1.38v-2.52s1.34,0,1.34,0v2.52h1.83v1.35Z" fill="#212e64"/>
      <path d="M391.32,83.56c-.74,0-1.41-.19-2.02-.57s-1.09-.89-1.45-1.53c-.36-.64-.54-1.35-.54-2.12,0-.59.1-1.14.31-1.65s.5-.96.86-1.35c.37-.39.79-.69,1.28-.91.49-.22,1-.33,1.55-.33.6,0,1.16.12,1.66.36.5.24.94.58,1.3,1.01.36.43.63.94.81,1.51s.24,1.18.2,1.84h-6.54c.06.45.21.86.45,1.21.23.36.54.64.9.85.37.21.77.32,1.22.32.48,0,.92-.12,1.31-.37.39-.25.71-.59.95-1.02l1.37.32c-.32.71-.8,1.29-1.45,1.74-.65.45-1.37.68-2.17.68ZM388.7,78.77h5.23c-.04-.45-.19-.86-.43-1.23-.25-.37-.56-.67-.94-.89-.38-.22-.79-.34-1.24-.34s-.86.11-1.23.33c-.37.22-.68.51-.93.89-.24.37-.39.79-.45,1.25Z" fill="#212e64"/>
      <path d="M396.64,83.35v-8.01h1.35v1c.28-.37.64-.67,1.07-.89s.9-.33,1.41-.33c.31,0,.61.04.9.12l-.55,1.35c-.22-.07-.43-.1-.64-.1-.4,0-.77.1-1.1.29-.33.2-.6.46-.8.79-.2.33-.3.7-.3,1.11v4.69h-1.35Z" fill="#212e64"/>
      <path d="M407.46,81.23l1.2.65c-.36.51-.82.91-1.38,1.22-.56.3-1.16.46-1.82.46-.74,0-1.41-.19-2.02-.57s-1.09-.89-1.45-1.53c-.36-.64-.54-1.35-.54-2.12,0-.59.1-1.14.31-1.65s.5-.96.86-1.35c.37-.39.79-.69,1.28-.91.49-.22,1-.33,1.55-.33.65,0,1.26.15,1.82.46.56.3,1.02.71,1.38,1.23l-1.2.65c-.26-.31-.56-.56-.91-.73-.35-.17-.71-.26-1.08-.26-.5,0-.95.13-1.35.4-.4.26-.72.62-.96,1.05-.24.44-.35.92-.35,1.43s.12,1,.36,1.43c.24.44.56.78.96,1.05.4.26.85.39,1.34.39.4,0,.77-.09,1.11-.27s.64-.42.88-.71Z" fill="#212e64"/>
      <path d="M413.49,83.56c-.74,0-1.41-.19-2.02-.57s-1.09-.89-1.45-1.53c-.36-.64-.54-1.35-.54-2.12,0-.59.1-1.14.31-1.65s.5-.96.86-1.35c.37-.39.79-.69,1.28-.91.49-.22,1-.33,1.55-.33.74,0,1.41.19,2.02.57.61.38,1.09.89,1.45,1.53.36.64.54,1.35.54,2.13,0,.58-.1,1.13-.31,1.63-.21.51-.5.96-.86,1.34-.37.39-.79.69-1.27.91-.48.22-1,.33-1.56.33ZM413.49,82.21c.5,0,.95-.13,1.36-.4s.72-.61.95-1.05c.23-.44.35-.91.35-1.42s-.12-1-.36-1.44c-.24-.44-.56-.79-.96-1.05-.4-.26-.85-.39-1.35-.39s-.95.13-1.35.4-.72.62-.95,1.05c-.24.44-.35.92-.35,1.43s.12,1.02.36,1.45c.24.44.56.78.97,1.03.41.25.85.38,1.33.38Z" fill="#212e64"/>
      <path d="M425.92,78.36v4.98h-1.35v-4.69c0-.41-.1-.77-.3-1.11-.2-.33-.46-.59-.79-.79-.33-.19-.7-.29-1.11-.29s-.77.1-1.1.29c-.33.2-.6.46-.8.79-.2.33-.3.7-.3,1.11v4.69h-1.35v-8.01h1.35v1c.28-.37.64-.67,1.07-.89s.9-.33,1.41-.33c.6,0,1.14.15,1.64.44.49.29.89.68,1.18,1.17.29.49.44,1.04.44,1.64Z" fill="#212e64"/>
      <path d="M434.61,78.36v4.98h-1.35v-4.69c0-.41-.1-.77-.3-1.11-.2-.33-.46-.59-.79-.79-.33-.19-.7-.29-1.11-.29s-.77.1-1.1.29c-.33.2-.6.46-.8.79-.2.33-.3.7-.3,1.11v4.69h-1.35v-8.01h1.35v1c.28-.37.64-.67,1.07-.89s.9-.33,1.41-.33c.6,0,1.14.15,1.64.44.49.29.89.68,1.18,1.17.29.49.44,1.04.44,1.64Z" fill="#212e64"/>
      <path d="M439.58,83.56c-.74,0-1.41-.19-2.02-.57s-1.09-.89-1.45-1.53c-.36-.64-.54-1.35-.54-2.12,0-.59.1-1.14.31-1.65s.5-.96.86-1.35c.37-.39.79-.69,1.28-.91.49-.22,1-.33,1.55-.33.6,0,1.16.12,1.66.36.5.24.94.58,1.3,1.01.36.43.63.94.81,1.51s.24,1.18.2,1.84h-6.54c.06.45.21.86.45,1.21.23.36.54.64.9.85.37.21.77.32,1.22.32.48,0,.92-.12,1.31-.37.39-.25.71-.59.95-1.02l1.37.32c-.32.71-.8,1.29-1.45,1.74-.65.45-1.37.68-2.17.68ZM436.96,78.77h5.23c-.04-.45-.19-.86-.43-1.23-.25-.37-.56-.67-.94-.89-.38-.22-.79-.34-1.24-.34s-.86.11-1.23.33c-.37.22-.68.51-.93.89-.24.37-.39.79-.45,1.25Z" fill="#212e64"/>
      <path d="M450.37,81.23l1.2.65c-.36.51-.82.91-1.38,1.22-.56.3-1.16.46-1.82.46-.74,0-1.41-.19-2.02-.57s-1.09-.89-1.45-1.53c-.36-.64-.54-1.35-.54-2.12,0-.59.1-1.14.31-1.65s.5-.96.86-1.35c.37-.39.79-.69,1.28-.91.49-.22,1-.33,1.55-.33.65,0,1.26.15,1.82.46.56.3,1.02.71,1.38,1.23l-1.2.65c-.26-.31-.56-.56-.91-.73-.35-.17-.71-.26-1.08-.26-.5,0-.95.13-1.35.4-.4.26-.72.62-.96,1.05-.24.44-.35.92-.35,1.43s.12,1,.36,1.43c.24.44.56.78.96,1.05.4.26.85.39,1.34.39.4,0,.77-.09,1.11-.27s.64-.42.88-.71Z" fill="#212e64"/>
      <path d="M457.17,76.68h-1.82v6.67h-1.35v-6.67s-1.37,0-1.37,0v-1.35h1.38v-2.52s1.34,0,1.34,0v2.52h1.83v1.35Z" fill="#212e64"/>
      <path d="M461.92,83.56c-.74,0-1.41-.19-2.02-.57s-1.09-.89-1.45-1.53c-.36-.64-.54-1.35-.54-2.12,0-.59.1-1.14.31-1.65s.5-.96.86-1.35c.37-.39.79-.69,1.28-.91.49-.22,1-.33,1.55-.33.6,0,1.16.12,1.66.36.5.24.94.58,1.3,1.01.36.43.63.94.81,1.51s.24,1.18.2,1.84h-6.54c.06.45.21.86.45,1.21.23.36.54.64.9.85.37.21.77.32,1.22.32.48,0,.92-.12,1.31-.37.39-.25.71-.59.95-1.02l1.37.32c-.32.71-.8,1.29-1.45,1.74-.65.45-1.37.68-2.17.68ZM459.31,78.77h5.23c-.04-.45-.19-.86-.43-1.23-.25-.37-.56-.67-.94-.89-.38-.22-.79-.34-1.24-.34s-.86.11-1.23.33c-.37.22-.68.51-.93.89-.24.37-.39.79-.45,1.25Z" fill="#212e64"/>
      <path d="M473.64,71.33h1.35v12.02h-1.35v-1.36c-.27.47-.64.85-1.1,1.14-.46.29-1,.43-1.62.43-.58,0-1.13-.11-1.63-.33-.51-.22-.96-.52-1.34-.91-.39-.39-.69-.83-.91-1.34-.22-.51-.33-1.05-.33-1.63s.11-1.13.33-1.64c.22-.51.52-.96.91-1.35.39-.39.83-.69,1.34-.91.51-.22,1.05-.33,1.63-.33.62,0,1.16.14,1.62.43.46.29.83.67,1.1,1.14v-5.36ZM470.94,82.25c.53,0,.99-.13,1.37-.39s.69-.61.9-1.05c.21-.44.32-.93.32-1.47s-.11-1.04-.32-1.48-.51-.79-.9-1.05c-.39-.26-.84-.39-1.37-.39s-1.01.13-1.44.39-.77.61-1.03,1.05c-.26.44-.38.93-.38,1.47s.13,1.03.39,1.47c.26.44.61.79,1.04,1.05.43.26.91.39,1.42.39Z" fill="#212e64"/>
      <path d="M197.66,102.79c-.76,0-1.47-.15-2.14-.45-.67-.3-1.26-.72-1.76-1.25-.51-.53-.91-1.15-1.19-1.85-.29-.7-.43-1.45-.43-2.26s.14-1.55.43-2.26c.29-.7.69-1.32,1.19-1.86.51-.53,1.1-.95,1.76-1.25.67-.3,1.38-.45,2.14-.45s1.48.15,2.15.45c.67.3,1.26.72,1.76,1.25.51.53.9,1.15,1.19,1.86.29.7.43,1.45.43,2.26s-.14,1.55-.43,2.26c-.29.7-.68,1.32-1.19,1.85-.51.53-1.1.95-1.76,1.25-.67.3-1.38.45-2.15.45ZM197.66,100.58c.45,0,.88-.09,1.28-.28.4-.19.75-.45,1.06-.78.3-.33.54-.71.72-1.15s.26-.9.26-1.39-.09-.96-.26-1.4c-.17-.44-.41-.82-.72-1.15-.3-.33-.66-.59-1.06-.78-.4-.19-.83-.28-1.28-.28s-.88.1-1.28.28c-.4.19-.75.45-1.06.78-.3.33-.54.71-.72,1.15-.17.43-.26.9-.26,1.39s.09.96.26,1.4c.17.44.41.82.72,1.15.3.33.66.59,1.06.78.4.19.83.28,1.28.28Z" fill="#212e64"/>
      <path d="M210.31,100.46l1.2.65c-.36.51-.82.91-1.38,1.22-.56.3-1.16.46-1.82.46-.74,0-1.41-.19-2.02-.57s-1.09-.89-1.45-1.53c-.36-.64-.54-1.35-.54-2.12,0-.59.1-1.14.31-1.65s.5-.96.86-1.35c.37-.39.79-.69,1.28-.91.49-.22,1-.33,1.55-.33.65,0,1.26.15,1.82.46.56.3,1.02.71,1.38,1.23l-1.2.65c-.26-.31-.56-.56-.91-.73s-.71-.26-1.08-.26c-.5,0-.95.13-1.35.4-.4.26-.72.62-.96,1.05-.24.44-.35.92-.35,1.43s.12,1,.36,1.43c.24.44.56.78.96,1.05.4.26.85.39,1.34.39.4,0,.77-.09,1.11-.27s.64-.42.88-.71Z" fill="#212e64"/>
      <path d="M218.34,100.46l1.2.65c-.36.51-.82.91-1.38,1.22-.56.3-1.16.46-1.82.46-.74,0-1.41-.19-2.02-.57s-1.09-.89-1.45-1.53c-.36-.64-.54-1.35-.54-2.12,0-.59.1-1.14.31-1.65s.5-.96.86-1.35c.37-.39.79-.69,1.28-.91.49-.22,1-.33,1.55-.33.65,0,1.26.15,1.82.46.56.3,1.02.71,1.38,1.23l-1.2.65c-.26-.31-.56-.56-.91-.73s-.71-.26-1.08-.26c-.5,0-.95.13-1.35.4-.4.26-.72.62-.96,1.05-.24.44-.35.92-.35,1.43s.12,1,.36,1.43c.24.44.56.78.96,1.05.4.26.85.39,1.34.39.4,0,.77-.09,1.11-.27s.64-.42.88-.71Z" fill="#212e64"/>
      <path d="M220.56,99.53v-4.97h1.35v4.67c0,.41.1.77.3,1.11.2.33.46.59.8.79.33.19.7.29,1.1.29s.77-.1,1.1-.29.59-.46.79-.79c.2-.33.3-.7.3-1.11v-4.67h1.35v8.01s-1.34,0-1.34,0v-1.02c-.29.37-.65.67-1.08.89-.43.22-.9.33-1.4.33-.6,0-1.14-.15-1.64-.44s-.89-.68-1.18-1.17c-.29-.49-.44-1.04-.44-1.64Z" fill="#212e64"/>
      <path d="M229.24,102.58v-8.01h1.35v1c.28-.37.64-.67,1.07-.89s.9-.33,1.41-.33c.31,0,.61.04.9.12l-.55,1.35c-.22-.07-.43-.1-.64-.1-.4,0-.77.1-1.1.29-.33.19-.6.46-.8.79-.2.33-.3.7-.3,1.11v4.69h-1.35Z" fill="#212e64"/>
      <path d="M238.07,102.79c-.74,0-1.41-.19-2.02-.57s-1.09-.89-1.45-1.53c-.36-.64-.54-1.35-.54-2.12,0-.59.1-1.14.31-1.65s.5-.96.86-1.35c.37-.39.79-.69,1.28-.91.49-.22,1-.33,1.55-.33.6,0,1.16.12,1.66.36.5.24.94.58,1.3,1.01.36.43.63.93.81,1.51s.24,1.18.2,1.84h-6.54c.06.45.21.86.45,1.21.23.36.54.64.9.85.37.21.77.32,1.22.32.48,0,.92-.12,1.31-.37.39-.25.71-.59.95-1.02l1.37.32c-.32.71-.8,1.29-1.45,1.74-.65.45-1.37.68-2.17.68ZM235.45,98h5.23c-.04-.45-.19-.86-.43-1.23-.25-.37-.56-.67-.94-.89s-.79-.34-1.24-.34-.86.11-1.23.33c-.37.22-.68.51-.93.89-.24.37-.39.79-.45,1.25Z" fill="#212e64"/>
      <path d="M250.48,97.6v4.98h-1.35v-4.69c0-.41-.1-.77-.3-1.11-.2-.33-.46-.59-.79-.79s-.7-.29-1.11-.29-.77.1-1.1.29c-.33.19-.6.46-.8.79-.2.33-.3.7-.3,1.11v4.69h-1.35v-8.01h1.35v1c.28-.37.64-.67,1.07-.89s.9-.33,1.41-.33c.6,0,1.14.15,1.64.44.49.29.89.68,1.18,1.17.29.49.44,1.04.44,1.64Z" fill="#212e64"/>
      <path d="M257.44,100.46l1.2.65c-.36.51-.82.91-1.38,1.22-.56.3-1.16.46-1.82.46-.74,0-1.41-.19-2.02-.57s-1.09-.89-1.45-1.53c-.36-.64-.54-1.35-.54-2.12,0-.59.1-1.14.31-1.65s.5-.96.86-1.35c.37-.39.79-.69,1.28-.91.49-.22,1-.33,1.55-.33.65,0,1.26.15,1.82.46.56.3,1.02.71,1.38,1.23l-1.2.65c-.26-.31-.56-.56-.91-.73s-.71-.26-1.08-.26c-.5,0-.95.13-1.35.4-.4.26-.72.62-.96,1.05-.24.44-.35.92-.35,1.43s.12,1,.36,1.43c.24.44.56.78.96,1.05.4.26.85.39,1.34.39.4,0,.77-.09,1.11-.27s.64-.42.88-.71Z" fill="#212e64"/>
      <path d="M263.47,102.79c-.74,0-1.41-.19-2.02-.57s-1.09-.89-1.45-1.53c-.36-.64-.54-1.35-.54-2.12,0-.59.1-1.14.31-1.65s.5-.96.86-1.35c.37-.39.79-.69,1.28-.91.49-.22,1-.33,1.55-.33.6,0,1.16.12,1.66.36.5.24.94.58,1.3,1.01.36.43.63.93.81,1.51s.24,1.18.2,1.84h-6.54c.06.45.21.86.45,1.21.23.36.54.64.9.85.37.21.77.32,1.22.32.48,0,.92-.12,1.31-.37.39-.25.71-.59.95-1.02l1.37.32c-.32.71-.8,1.29-1.45,1.74-.65.45-1.37.68-2.17.68ZM260.86,98h5.23c-.04-.45-.19-.86-.43-1.23-.25-.37-.56-.67-.94-.89s-.79-.34-1.24-.34-.86.11-1.23.33c-.37.22-.68.51-.93.89-.24.37-.39.79-.45,1.25Z" fill="#212e64"/>
      <path d="M271.28,102.73c-.43-.02-.85-.1-1.26-.24s-.77-.35-1.07-.6-.53-.55-.67-.88l1.15-.5c.08.18.22.35.43.51.21.16.45.29.72.38.27.1.55.14.83.14.29,0,.57-.05.83-.14.26-.09.47-.23.63-.41.16-.18.24-.39.24-.64,0-.27-.09-.48-.27-.63-.18-.15-.4-.27-.67-.36-.27-.09-.54-.17-.82-.25-.55-.14-1.04-.31-1.47-.5s-.77-.44-1.02-.75c-.25-.3-.37-.69-.37-1.16,0-.5.14-.93.41-1.29.28-.36.64-.64,1.09-.84.45-.2.93-.3,1.44-.3.65,0,1.24.14,1.77.42.53.28.93.65,1.19,1.13l-1.08.63c-.09-.19-.23-.36-.42-.51-.19-.15-.4-.26-.64-.35-.24-.09-.49-.13-.74-.14-.31-.01-.6.03-.87.12-.27.09-.49.23-.65.41s-.24.41-.24.69.09.47.26.61c.17.14.4.25.68.33.28.08.59.18.92.28.49.15.94.33,1.36.54.42.2.76.46,1.02.76.26.3.39.68.38,1.13,0,.49-.15.92-.44,1.29-.29.37-.67.64-1.14.84-.47.19-.97.28-1.5.26Z" fill="#212e64"/>
      <path d="M281.4,92.59v1.98h2.35v1.35h-2.35v6.67h-1.35v-6.67h-1.03v-1.35h1.03v-1.98c0-.41.1-.78.3-1.12s.47-.6.81-.8c.34-.2.71-.3,1.12-.3.3,0,.59.06.87.18.28.12.53.3.75.53l-.96.95c-.07-.1-.17-.18-.29-.24-.12-.06-.24-.08-.37-.08-.24,0-.45.09-.62.26s-.26.38-.26.62Z" fill="#212e64"/>
      <path d="M288.4,102.79c-.74,0-1.41-.19-2.02-.57s-1.09-.89-1.45-1.53c-.36-.64-.54-1.35-.54-2.12,0-.59.1-1.14.31-1.65s.5-.96.86-1.35c.37-.39.79-.69,1.28-.91.49-.22,1-.33,1.55-.33.74,0,1.41.19,2.02.57s1.09.89,1.45,1.53c.36.64.54,1.35.54,2.13,0,.58-.1,1.13-.31,1.63-.21.51-.5.96-.86,1.34-.37.39-.79.69-1.27.91-.48.22-1,.33-1.56.33ZM288.4,101.44c.5,0,.95-.13,1.36-.4s.72-.61.95-1.05c.23-.44.35-.91.35-1.42s-.12-1-.36-1.44c-.24-.44-.56-.79-.96-1.05s-.85-.39-1.35-.39-.95.13-1.35.4-.72.62-.95,1.05c-.24.44-.35.92-.35,1.43s.12,1.02.36,1.45c.24.44.56.78.97,1.03.41.25.85.38,1.33.38Z" fill="#212e64"/>
      <path d="M293.75,102.58v-8.01h1.35v1c.28-.37.64-.67,1.07-.89s.9-.33,1.41-.33c.31,0,.61.04.9.12l-.55,1.35c-.22-.07-.43-.1-.64-.1-.4,0-.77.1-1.1.29-.33.19-.6.46-.8.79-.2.33-.3.7-.3,1.11v4.69h-1.35Z" fill="#212e64"/>
      <path d="M307.52,102.79c-.63,0-1.23-.1-1.81-.3s-1.08-.48-1.51-.86c-.43-.37-.74-.82-.93-1.33l2.08-.77c.06.18.2.35.4.51.2.16.46.29.76.39.3.1.64.15,1,.15s.67-.05.98-.16c.31-.1.56-.25.75-.44.19-.19.28-.41.28-.66s-.1-.46-.3-.63c-.2-.17-.45-.3-.76-.4-.31-.1-.63-.17-.95-.23-.81-.12-1.53-.31-2.17-.57s-1.14-.63-1.51-1.1c-.37-.47-.55-1.06-.55-1.78s.2-1.3.59-1.82c.39-.52.91-.92,1.55-1.21.64-.29,1.34-.43,2.09-.43.62,0,1.22.1,1.8.3.58.2,1.08.48,1.51.86.43.37.74.82.93,1.35l-2.08.75c-.06-.18-.2-.35-.4-.51-.2-.15-.46-.28-.76-.38-.3-.1-.64-.14-.99-.14-.34,0-.67.05-.97.15s-.56.25-.75.44c-.2.19-.29.4-.29.64,0,.32.09.55.28.71.18.16.43.28.73.34.3.07.64.13,1.01.18.76.11,1.46.31,2.1.6.64.29,1.16.67,1.54,1.14s.58,1.05.58,1.73-.2,1.3-.59,1.82c-.39.52-.91.92-1.55,1.21-.64.29-1.34.43-2.09.43Z" fill="#212e64"/>
      <path d="M314.86,106.59h-1.35v-12.02h1.35v1.37c.27-.47.64-.85,1.09-1.14s.99-.44,1.62-.44c.58,0,1.13.11,1.64.33s.96.52,1.34.91.69.84.91,1.34c.22.51.33,1.05.33,1.63s-.11,1.13-.33,1.64c-.22.51-.52.96-.91,1.35s-.83.69-1.34.91-1.06.33-1.64.33c-.63,0-1.16-.15-1.62-.44s-.82-.67-1.09-1.14v5.36ZM317.56,95.66c-.52,0-.97.13-1.36.39-.39.26-.69.61-.9,1.05-.21.44-.32.93-.32,1.47s.11,1.02.32,1.47c.21.44.51.8.9,1.06s.84.39,1.37.39.99-.13,1.43-.39.78-.61,1.04-1.05c.26-.44.39-.93.39-1.48s-.13-1.02-.38-1.46c-.26-.44-.6-.79-1.03-1.05s-.91-.39-1.44-.39Z" fill="#212e64"/>
      <path d="M329.51,94.57h1.35v8.01h-1.35l-.06-1.35c-.25.46-.6.84-1.04,1.13s-.97.43-1.57.43-1.14-.11-1.65-.33c-.51-.22-.97-.53-1.36-.92s-.7-.85-.92-1.36c-.22-.51-.33-1.07-.33-1.66s.11-1.11.32-1.62c.21-.51.51-.95.89-1.33.38-.38.82-.68,1.33-.9.5-.22,1.04-.32,1.62-.32.63,0,1.18.15,1.66.44.48.3.86.68,1.15,1.15l-.05-1.37ZM326.82,101.48c.53,0,.99-.13,1.37-.39s.69-.61.9-1.05c.21-.44.32-.93.32-1.47s-.11-1.04-.32-1.48-.51-.79-.9-1.05c-.39-.26-.84-.39-1.37-.39s-1.01.13-1.44.39c-.43.26-.78.61-1.03,1.05-.25.44-.38.93-.38,1.47s.13,1.03.39,1.47c.26.44.61.79,1.04,1.05.43.26.91.39,1.42.39Z" fill="#212e64"/>
      <path d="M336.61,95.91h-1.82v6.67h-1.35v-6.67s-1.37,0-1.37,0v-1.35h1.38v-2.52s1.34,0,1.34,0v2.52h1.83v1.35Z" fill="#212e64"/>
      <path d="M338.66,93.26c-.21,0-.39-.07-.54-.21-.14-.14-.22-.31-.22-.52s.07-.38.22-.52c.14-.14.32-.21.53-.21s.38.07.53.21c.14.14.22.31.22.52s-.07.38-.21.52c-.14.14-.32.21-.52.21ZM337.98,94.57h1.35v8.01h-1.35v-8.01Z" fill="#212e64"/>
      <path d="M347.58,94.57h1.35v8.01h-1.35l-.06-1.35c-.25.46-.6.84-1.04,1.13s-.97.43-1.57.43-1.14-.11-1.65-.33c-.51-.22-.97-.53-1.36-.92s-.7-.85-.92-1.36c-.22-.51-.33-1.07-.33-1.66s.11-1.11.32-1.62c.21-.51.51-.95.89-1.33.38-.38.82-.68,1.33-.9.5-.22,1.04-.32,1.62-.32.63,0,1.18.15,1.66.44.48.3.86.68,1.15,1.15l-.05-1.37ZM344.89,101.48c.53,0,.99-.13,1.37-.39s.69-.61.9-1.05c.21-.44.32-.93.32-1.47s-.11-1.04-.32-1.48-.51-.79-.9-1.05c-.39-.26-.84-.39-1.37-.39s-1.01.13-1.44.39c-.43.26-.78.61-1.03,1.05-.25.44-.38.93-.38,1.47s.13,1.03.39,1.47c.26.44.61.79,1.04,1.05.43.26.91.39,1.42.39Z" fill="#212e64"/>
      <path d="M350.62,102.58v-12.02h1.35v12.02h-1.35Z" fill="#212e64"/>
      <path d="M357.74,102.58v-11.22h7.1v2.21h-4.89v1.89h3.81v2.21h-3.81v2.69h4.89v2.21h-7.1Z" fill="#212e64"/>
      <path d="M366.28,102.58l2.93-4.02-2.92-4.01h1.66l2.09,2.85,2.08-2.85h1.66l-2.92,4.01,2.93,4.02h-1.66l-2.1-2.88-2.11,2.88h-1.66Z" fill="#212e64"/>
      <path d="M379.56,95.91h-1.82v6.67h-1.35v-6.67s-1.37,0-1.37,0v-1.35h1.38v-2.52s1.34,0,1.34,0v2.52h1.83v1.35Z" fill="#212e64"/>
      <path d="M380.99,102.58v-8.01h1.35v1c.28-.37.64-.67,1.07-.89s.9-.33,1.41-.33c.31,0,.61.04.9.12l-.55,1.35c-.22-.07-.43-.1-.64-.1-.4,0-.77.1-1.1.29-.33.19-.6.46-.8.79-.2.33-.3.7-.3,1.11v4.69h-1.35Z" fill="#212e64"/>
      <path d="M389.82,102.79c-.74,0-1.41-.19-2.02-.57s-1.09-.89-1.45-1.53c-.36-.64-.54-1.35-.54-2.12,0-.59.1-1.14.31-1.65s.5-.96.86-1.35c.37-.39.79-.69,1.28-.91.49-.22,1-.33,1.55-.33.6,0,1.16.12,1.66.36.5.24.94.58,1.3,1.01.36.43.63.93.81,1.51s.24,1.18.2,1.84h-6.54c.06.45.21.86.45,1.21.23.36.54.64.9.85.37.21.77.32,1.22.32.48,0,.92-.12,1.31-.37.39-.25.71-.59.95-1.02l1.37.32c-.32.71-.8,1.29-1.45,1.74-.65.45-1.37.68-2.17.68ZM387.2,98h5.23c-.04-.45-.19-.86-.43-1.23-.25-.37-.56-.67-.94-.89s-.79-.34-1.24-.34-.86.11-1.23.33c-.37.22-.68.51-.93.89-.24.37-.39.79-.45,1.25Z" fill="#212e64"/>
      <path d="M395.15,102.58v-8.01h1.35v1c.28-.37.64-.67,1.07-.89.43-.22.9-.33,1.41-.33.59,0,1.14.14,1.63.43.49.29.88.67,1.16,1.15.28-.48.67-.86,1.16-1.15.49-.29,1.03-.43,1.61-.43s1.15.15,1.64.44c.49.29.88.68,1.17,1.17.29.49.44,1.04.44,1.64v4.98h-1.35v-4.66c0-.4-.1-.76-.29-1.1-.19-.34-.45-.61-.78-.81-.33-.2-.69-.3-1.08-.3s-.76.1-1.08.28c-.33.19-.59.45-.78.78-.19.33-.29.71-.29,1.14v4.66h-1.35v-4.66c0-.43-.1-.81-.29-1.14-.19-.33-.45-.6-.78-.78-.33-.19-.69-.28-1.09-.28s-.75.1-1.08.3c-.33.2-.59.47-.78.81-.19.34-.29.7-.29,1.1v4.66h-1.35Z" fill="#212e64"/>
      <path d="M412.75,102.79c-.74,0-1.41-.19-2.02-.57s-1.09-.89-1.45-1.53c-.36-.64-.54-1.35-.54-2.12,0-.59.1-1.14.31-1.65s.5-.96.86-1.35c.37-.39.79-.69,1.28-.91.49-.22,1-.33,1.55-.33.6,0,1.16.12,1.66.36.5.24.94.58,1.3,1.01.36.43.63.93.81,1.51s.24,1.18.2,1.84h-6.54c.06.45.21.86.45,1.21.23.36.54.64.9.85.37.21.77.32,1.22.32.48,0,.92-.12,1.31-.37.39-.25.71-.59.95-1.02l1.37.32c-.32.71-.8,1.29-1.45,1.74-.65.45-1.37.68-2.17.68ZM410.14,98h5.23c-.04-.45-.19-.86-.43-1.23-.25-.37-.56-.67-.94-.89s-.79-.34-1.24-.34-.86.11-1.23.33c-.37.22-.68.51-.93.89-.24.37-.39.79-.45,1.25Z" fill="#212e64"/>
      <path d="M422.03,102.58v-11.22h7.1v2.21h-4.89v1.89h3.81v2.21h-3.81v2.69h4.89v2.21h-7.1Z" fill="#212e64"/>
      <path d="M435.06,102.58h-1.72l-2.93-8.03h1.43l2.35,6.47,2.35-6.47h1.43l-2.92,8.03Z" fill="#212e64"/>
      <path d="M442.48,102.79c-.74,0-1.41-.19-2.02-.57s-1.09-.89-1.45-1.53c-.36-.64-.54-1.35-.54-2.12,0-.59.1-1.14.31-1.65s.5-.96.86-1.35c.37-.39.79-.69,1.28-.91.49-.22,1-.33,1.55-.33.6,0,1.16.12,1.66.36.5.24.94.58,1.3,1.01.36.43.63.93.81,1.51s.24,1.18.2,1.84h-6.54c.06.45.21.86.45,1.21.23.36.54.64.9.85.37.21.77.32,1.22.32.48,0,.92-.12,1.31-.37.39-.25.71-.59.95-1.02l1.37.32c-.32.71-.8,1.29-1.45,1.74-.65.45-1.37.68-2.17.68ZM439.87,98h5.23c-.04-.45-.19-.86-.43-1.23-.25-.37-.56-.67-.94-.89s-.79-.34-1.24-.34-.86.11-1.23.33c-.37.22-.68.51-.93.89-.24.37-.39.79-.45,1.25Z" fill="#212e64"/>
      <path d="M454.9,97.6v4.98h-1.35v-4.69c0-.41-.1-.77-.3-1.11-.2-.33-.46-.59-.79-.79s-.7-.29-1.11-.29-.77.1-1.1.29c-.33.19-.6.46-.8.79-.2.33-.3.7-.3,1.11v4.69h-1.35v-8.01h1.35v1c.28-.37.64-.67,1.07-.89s.9-.33,1.41-.33c.6,0,1.14.15,1.64.44.49.29.89.68,1.18,1.17.29.49.44,1.04.44,1.64Z" fill="#212e64"/>
      <path d="M460.65,95.91h-1.82v6.67h-1.35v-6.67s-1.37,0-1.37,0v-1.35h1.38v-2.52s1.34,0,1.34,0v2.52h1.83v1.35Z" fill="#212e64"/>
      <path d="M464.46,102.73c-.43-.02-.85-.1-1.26-.24s-.77-.35-1.07-.6-.53-.55-.67-.88l1.15-.5c.08.18.22.35.43.51.21.16.45.29.72.38.27.1.55.14.83.14.29,0,.57-.05.83-.14.26-.09.47-.23.63-.41.16-.18.24-.39.24-.64,0-.27-.09-.48-.27-.63-.18-.15-.4-.27-.67-.36-.27-.09-.54-.17-.82-.25-.55-.14-1.04-.31-1.47-.5s-.77-.44-1.02-.75c-.25-.3-.37-.69-.37-1.16,0-.5.14-.93.41-1.29.28-.36.64-.64,1.09-.84.45-.2.93-.3,1.44-.3.65,0,1.24.14,1.77.42.53.28.93.65,1.19,1.13l-1.08.63c-.09-.19-.23-.36-.42-.51-.19-.15-.4-.26-.64-.35-.24-.09-.49-.13-.74-.14-.31-.01-.6.03-.87.12-.27.09-.49.23-.65.41s-.24.41-.24.69.09.47.26.61c.17.14.4.25.68.33.28.08.59.18.92.28.49.15.94.33,1.36.54.42.2.76.46,1.02.76.26.3.39.68.38,1.13,0,.49-.15.92-.44,1.29-.29.37-.67.64-1.14.84-.47.19-.97.28-1.5.26Z" fill="#212e64"/>
    </g>
  </g>
</svg>