<?xml version="1.0" encoding="UTF-8"?>
<svg id="_图层_2" data-name="图层_2" xmlns="http://www.w3.org/2000/svg" viewBox="0 0 370.3 280.5">
  <rect width="370.3" height="280.5" fill="#fff"/>
  <g id="Layer_1">
    <g>
      <g>
        <path d="M62.94,99.8c13.2,22.37,30.01,43.17,51.4,58.22,8.59,6.11,18.22,10.8,28.03,14.57,26.73,10.42,56.94,13.85,84.76,5.97,4.42-1.3,8.81-2.94,13.01-4.93.11-.55.21-1.1.31-1.65-6.93,2.27-14.32,3.71-21.55,4.48-24.99,2.57-50.39-2.03-73.55-11.44-9.23-3.66-18.25-8.03-26.42-13.69-20.83-14.27-37.79-33.41-52.63-53.72-3.02-4.1-5.87-8.33-8.66-12.61-1.63-2.66-3.41-5.3-4.96-8.04-.24.25-.49.51-.73.77,1.11,2.84,2.47,5.61,3.71,8.38,2.22,4.67,4.7,9.2,7.27,13.69Z" fill="#d1e7f4"/>
        <path d="M181.44,213.5c-34.11,3.56-69.63-.69-99.44-17.86-26.47-16.18-45.5-45.78-56.28-75.15-.46,1.26-.9,2.52-1.32,3.8,4.47,25.81,17.76,52.21,36.06,70.12,11.14,11.13,25.35,19.2,40.19,24.2,26.34,9.45,55.37,10.53,82.4,5.32,16.19-3.14,31.86-8.73,46.21-16.74.93-1.95,1.8-3.93,2.63-5.93-16.2,6.17-33.31,10.45-50.45,12.25Z" fill="#a4d0ea"/>
        <path d="M84.13,111.48c18.25-33.54,51.23-62.09,90.58-62.42-2.44-.91-4.91-1.73-7.41-2.46-21.84-1.7-44.12,6.83-61.32,20.2-21.25,16.74-38.15,40.47-44.86,66.78-9.65,39.23-2.27,81.79,16.8,117.02,3.1,5.61,6.53,11.03,10.3,16.19,1.7.72,3.42,1.4,5.16,2.03.07.02.14.05.21.07-24.74-46.41-34.39-111.93-9.46-157.41Z" fill="#208dcd"/>
        <path d="M184.88,63.56c-19.46,15.26-35.69,34.5-47.85,56.08-23.91,41.04-23.98,93.89-2.07,135.74,3.39,6.38,7.25,12.6,11.81,18.22.97-.17,1.93-.35,2.89-.55-14.4-25.53-20.94-56.81-20.66-85.52.13-8.22.92-16.62,2.31-24.72,4.49-24.6,16.47-47.48,31.05-67.69,8.66-11.72,20.09-25.41,32.66-35.64-.77-.52-1.55-1.02-2.33-1.52-2.68,1.78-5.27,3.68-7.81,5.6Z" fill="#7bbae4"/>
        <path d="M197.54,58.92c26.26,18.35,46.85,45.44,54.94,76.68,7.43,28.07,3.09,59.47-11.87,84.56-35.98,61.55-123.71,77.73-182.67,40.55-13.99-8.61-26.43-20.17-35.87-33.68C-18.27,169.17-1.81,86.44,59.17,49.99c42.6-26.08,98.71-19.08,138.37,8.94h0ZM196.49,60.44c-25.45-17.77-58.43-22.31-87.92-14.02C33.28,66.64-5.77,150.49,34.59,218.97c13.18,22.61,34.01,40.94,58.79,49.84,84.39,29.2,155.88-48.6,147.48-131.09-2.99-30.93-18.47-59.63-44.38-77.28h0Z" fill="#222b61"/>
        <circle cx="78.05" cy="243.02" r="10.31" fill="#208dcd"/>
        <circle cx="179.25" cy="72.61" r="8.46" fill="#7bbae4"/>
        <circle cx="220.44" cy="176.92" r="8.46" fill="#d1e7f4"/>
      </g>
      <path d="M18.41,19.81C85.13-2.16,160.82-6.93,226.52,21.37c58.19,25.87,102.9,76.36,131.01,132.71,4.96,10.13,9.51,20.71,12.77,31.58-.76,1.07-3.97,5.93-4.83,6.75-20.32,22.96-44.86,42.33-71.4,57.44-26.51,14.99-55.92,25.32-86.11,28.42,14.55-3.7,28.55-9,41.75-15.68,38.12-19.48,70.55-49.3,94.44-84.58.32-.48,1-1.56,1.24-1.99,0,0-1.89,11.15-1.89,11.15-4.49-15.93-11.13-31.23-18.7-45.98-23.44-44.65-58.12-85.38-103.56-108.57C158.99,1.39,84.68,2.28,18.41,19.81h0Z" fill="#208dcd"/>
      <path d="M18.41,19.81C95.27-11.48,189.18-7.36,257.06,44.07c22.27,16.87,43.77,38.94,60.3,61.43,18.06,24.57,34.55,57.03,23,87.69-8.76,23.24-35.54,41.93-55.86,54.8-23.31,14.77-49.41,25.18-76.54,30.27,29.82-7.36,57.54-23.46,80.83-42.89,18.13-15.13,27.59-34.36,29.59-60.99,2.58-34.41-29.19-90.63-89.63-131.69-32.8-22.28-82.66-31.9-120.64-32.84-17.6-.43-35.23.66-52.68,3.01-12.45,1.68-24.8,4.01-37.01,6.94Z" fill="#222b61"/>
    </g>
  </g>
</svg>
