<?xml version="1.0" encoding="UTF-8"?>
<svg id="_图层_2" data-name="图层_2" xmlns="http://www.w3.org/2000/svg" viewBox="0 0 473.69 121">
  <g id="Layer_1">
    <g>
      <g>
        <g>
          <path d="M27.15,43.05c5.69,9.65,12.95,18.62,22.17,25.11,3.71,2.64,7.86,4.66,12.09,6.28,11.53,4.49,24.56,5.97,36.56,2.57,1.91-.56,3.8-1.27,5.61-2.13.05-.24.09-.47.14-.71-2.99.98-6.18,1.6-9.3,1.93-10.78,1.11-21.74-.88-31.73-4.93-3.98-1.58-7.87-3.46-11.39-5.91-8.98-6.15-16.3-14.41-22.7-23.17-1.3-1.77-2.53-3.59-3.73-5.44-.7-1.15-1.47-2.28-2.14-3.47-.11.11-.21.22-.31.33.48,1.23,1.07,2.42,1.6,3.61.96,2.01,2.03,3.97,3.13,5.91Z" fill="#d1e7f4"/>
          <path d="M78.26,92.1c-14.71,1.53-30.04-.3-42.89-7.71-11.42-6.98-19.63-19.75-24.28-32.42-.2.54-.39,1.09-.57,1.64,1.93,11.13,7.66,22.52,15.56,30.25,4.8,4.8,10.94,8.28,17.33,10.44,11.36,4.08,23.88,4.54,35.54,2.29,6.98-1.35,13.74-3.76,19.93-7.22.4-.84.78-1.69,1.14-2.56-6.99,2.66-14.37,4.51-21.76,5.28Z" fill="#a4d0ea"/>
          <path d="M36.29,48.09c7.87-14.47,22.1-26.78,39.07-26.92-1.05-.39-2.12-.75-3.2-1.06-9.42-.73-19.03,2.95-26.45,8.71-9.17,7.22-16.46,17.46-19.35,28.81-4.16,16.92-.98,35.28,7.25,50.48,1.34,2.42,2.81,4.76,4.44,6.98.73.31,1.47.6,2.23.87.03.01.06.02.09.03-10.67-20.02-14.83-48.28-4.08-67.9Z" fill="#208dcd"/>
          <path d="M79.75,27.42c-8.4,6.58-15.39,14.88-20.64,24.19-10.31,17.71-10.34,40.5-.89,58.55,1.46,2.75,3.13,5.44,5.1,7.86.42-.07.83-.15,1.25-.24-6.21-11.01-9.03-24.51-8.91-36.89.06-3.54.39-7.17,1-10.66,1.94-10.61,7.1-20.48,13.39-29.2,3.73-5.05,8.67-10.96,14.09-15.38-.33-.22-.67-.44-1.01-.65-1.15.77-2.28,1.59-3.37,2.42Z" fill="#7bbae4"/>
          <path d="M85.21,25.42c11.33,7.91,20.21,19.6,23.7,33.08,3.2,12.11,1.33,25.65-5.12,36.48-15.52,26.55-53.37,33.53-78.8,17.49-6.03-3.72-11.4-8.7-15.47-14.53C-7.88,72.97-.78,37.29,25.52,21.56c18.38-11.25,42.58-8.23,59.69,3.85h0ZM84.76,26.07c-10.98-7.67-25.21-9.62-37.92-6.05C14.36,28.74-2.49,64.92,14.92,94.46c5.69,9.75,14.67,17.66,25.36,21.5,36.4,12.6,67.24-20.96,63.62-56.55-1.29-13.34-7.97-25.72-19.14-33.33h0Z" fill="#222b61"/>
          <circle cx="33.67" cy="104.83" r="4.45" fill="#208dcd"/>
          <circle cx="77.32" cy="31.32" r="3.65" fill="#7bbae4"/>
          <circle cx="95.09" cy="76.32" r="3.65" fill="#d1e7f4"/>
        </g>
        <path d="M7.94,8.54c28.87-9.46,61.24-11.57,89.77.67,21.52,9.49,38.7,27.03,50.86,46.92,3.57,5.9,6.73,12.07,9.28,18.49.7,1.58,1.42,4.13,1.81,5.91-9.02,11.1-20.48,20.14-32.81,27.23-11.44,6.47-24.12,10.9-37.14,12.26,18.61-4.71,35.02-15.74,47.95-29.66,4.14-4.5,8.09-9.3,11.33-14.45,0,0-.81,4.81-.81,4.81-4.05-13.83-11.07-26.8-19.77-38.29C99.64,3.34,52.65-3.25,7.94,8.54h0Z" fill="#208dcd"/>
        <path d="M7.94,8.54C41.09-4.95,81.6-3.17,110.89,19.01c9.61,7.28,18.88,16.8,26.01,26.5,7.79,10.6,14.91,24.6,9.92,37.83-3.78,10.03-15.33,18.09-24.1,23.64-10.06,6.37-21.31,10.86-33.02,13.06,12.86-3.17,24.82-10.12,34.87-18.5,7.82-6.53,11.9-14.82,12.76-26.31,1.11-14.84-12.59-39.1-38.66-56.81-14.15-9.61-35.66-13.76-52.04-14.17-7.59-.19-15.2.28-22.72,1.3-5.37.72-10.7,1.73-15.97,2.99Z" fill="#222b61"/>
      </g>
      <g>
        <path d="M192.11,54.31V22.18h10.65c2.22,0,4.3.42,6.23,1.25,1.94.83,3.64,1.99,5.12,3.47,1.48,1.48,2.63,3.18,3.47,5.12.83,1.94,1.25,4.01,1.25,6.23s-.42,4.3-1.25,6.23c-.83,1.94-1.99,3.64-3.47,5.12-1.48,1.48-3.18,2.63-5.12,3.46-1.94.83-4.01,1.25-6.23,1.25h-10.65ZM198.45,47.98h4.31c1.32,0,2.56-.25,3.73-.76,1.17-.5,2.21-1.2,3.11-2.09.9-.89,1.61-1.92,2.12-3.1s.77-2.44.77-3.79-.26-2.6-.77-3.77-1.22-2.2-2.11-3.1c-.89-.89-1.93-1.59-3.1-2.1-1.17-.5-2.42-.76-3.75-.76h-4.31v19.46Z" fill="#212e64"/>
        <path d="M237.46,54.91c-2.17,0-4.21-.43-6.13-1.3-1.91-.86-3.6-2.06-5.05-3.59-1.45-1.53-2.59-3.3-3.42-5.31-.83-2.01-1.24-4.17-1.24-6.46s.41-4.45,1.24-6.46c.83-2.01,1.97-3.78,3.42-5.31,1.45-1.53,3.14-2.73,5.05-3.59s3.96-1.3,6.13-1.3,4.24.43,6.15,1.3,3.6,2.06,5.05,3.59c1.45,1.53,2.59,3.3,3.41,5.31.82,2.01,1.23,4.16,1.23,6.46s-.41,4.45-1.23,6.46c-.82,2.01-1.95,3.78-3.41,5.31-1.45,1.53-3.14,2.73-5.05,3.59-1.91.86-3.96,1.3-6.15,1.3ZM237.46,48.57c1.3,0,2.52-.27,3.67-.81,1.15-.54,2.16-1.29,3.03-2.24.87-.95,1.56-2.04,2.05-3.28.5-1.24.75-2.57.75-3.99s-.25-2.76-.75-4c-.5-1.25-1.18-2.34-2.05-3.28-.87-.94-1.88-1.68-3.03-2.23-1.15-.54-2.37-.81-3.67-.81s-2.52.27-3.67.81c-1.15.54-2.16,1.29-3.03,2.24-.87.95-1.56,2.04-2.05,3.28-.5,1.24-.75,2.57-.75,3.99s.25,2.76.75,4c.5,1.25,1.18,2.34,2.05,3.28.87.94,1.88,1.68,3.03,2.23,1.15.54,2.37.81,3.67.81Z" fill="#212e64"/>
        <path d="M256.02,54.31l6.24-32.13h5.35l7.46,19.67,7.48-19.67h5.35l6.24,32.13h-6.47l-3.56-18.43-6.86,18.11h-4.36l-6.84-18.11-3.58,18.43h-6.45Z" fill="#212e64"/>
        <path d="M299.44,54.31V22.18h6.33v32.13h-6.33Z" fill="#212e64"/>
        <path d="M311.97,54.31V22.18h6.84l12.53,20.68v-20.68h6.33v32.13h-6.84l-12.53-20.68v20.68h-6.33Z" fill="#212e64"/>
        <path d="M358.1,54.91c-2.17,0-4.21-.43-6.13-1.3-1.91-.86-3.6-2.06-5.05-3.59-1.45-1.53-2.59-3.3-3.42-5.31-.83-2.01-1.24-4.17-1.24-6.46s.41-4.45,1.24-6.46c.83-2.01,1.97-3.78,3.42-5.31,1.45-1.53,3.14-2.73,5.05-3.59s3.96-1.3,6.13-1.3,4.24.43,6.15,1.3c1.91.86,3.6,2.06,5.05,3.59,1.45,1.53,2.59,3.3,3.41,5.31.82,2.01,1.23,4.16,1.23,6.46s-.41,4.45-1.23,6.46c-.82,2.01-1.95,3.78-3.41,5.31-1.45,1.53-3.14,2.73-5.05,3.59-1.91.86-3.96,1.3-6.15,1.3ZM358.1,48.57c1.3,0,2.52-.27,3.67-.81,1.15-.54,2.16-1.29,3.03-2.24.87-.95,1.56-2.04,2.05-3.28.5-1.24.75-2.57.75-3.99s-.25-2.76-.75-4c-.5-1.25-1.18-2.34-2.05-3.28-.87-.94-1.88-1.68-3.03-2.23-1.15-.54-2.37-.81-3.67-.81s-2.52.27-3.67.81c-1.15.54-2.16,1.29-3.03,2.24-.87.95-1.56,2.04-2.05,3.28-.5,1.24-.75,2.57-.75,3.99s.25,2.76.75,4c.5,1.25,1.18,2.34,2.05,3.28.87.94,1.88,1.68,3.03,2.23,1.15.54,2.37.81,3.67.81Z" fill="#212e64"/>
        <path d="M378.52,37.37h14.69v6.33h-14.69v-6.33Z" fill="#f0555d"/>
        <path d="M410.4,54.91c-1.81,0-3.53-.28-5.18-.85-1.64-.57-3.08-1.38-4.31-2.46-1.23-1.07-2.12-2.34-2.65-3.81l5.94-2.2c.18.52.57,1.01,1.15,1.46.58.45,1.31.82,2.18,1.1.87.28,1.83.42,2.87.42s1.93-.15,2.81-.45,1.59-.71,2.13-1.25c.54-.54.82-1.16.82-1.88s-.28-1.32-.85-1.79c-.57-.47-1.29-.85-2.18-1.14-.89-.28-1.8-.5-2.73-.65-2.31-.34-4.38-.88-6.21-1.64-1.83-.76-3.27-1.8-4.33-3.14-1.06-1.34-1.58-3.04-1.58-5.11s.56-3.73,1.69-5.21c1.13-1.48,2.61-2.64,4.45-3.47,1.84-.83,3.84-1.24,5.98-1.24,1.77,0,3.49.28,5.14.85s3.09,1.38,4.33,2.46,2.12,2.36,2.65,3.86l-5.94,2.16c-.18-.52-.57-1-1.15-1.45-.58-.44-1.31-.8-2.18-1.08-.87-.28-1.82-.41-2.85-.41-.98-.02-1.91.13-2.79.44-.88.31-1.6.73-2.16,1.26-.56.54-.84,1.15-.84,1.84,0,.9.26,1.58.79,2.04.53.46,1.23.79,2.1.99s1.84.37,2.89.53c2.17.32,4.18.89,6.01,1.71,1.84.82,3.31,1.9,4.42,3.26,1.11,1.35,1.66,3,1.66,4.95s-.56,3.72-1.68,5.21c-1.12,1.48-2.59,2.64-4.43,3.47-1.84.83-3.83,1.24-5.99,1.24Z" fill="#f0555d"/>
        <path d="M427.61,54.31V22.18h20.33v6.33h-14v5.42h10.92v6.33h-10.92v7.71h14v6.33h-20.33Z" fill="#f0555d"/>
        <path d="M453.04,54.31V22.18h20.33v6.33h-14v5.42h10.92v6.33h-10.92v7.71h14v6.33h-20.33Z" fill="#f0555d"/>
      </g>
      <g>
        <path d="M191.84,83.14v-11.19h3.71c.77,0,1.5.15,2.17.44.67.29,1.27.69,1.78,1.21.51.51.92,1.11,1.21,1.78.29.67.44,1.4.44,2.17s-.15,1.5-.44,2.17c-.29.67-.69,1.27-1.21,1.78-.51.51-1.11.92-1.78,1.21-.67.29-1.4.44-2.17.44h-3.71ZM194.04,80.94h1.5c.46,0,.89-.09,1.3-.26.41-.18.77-.42,1.08-.73.31-.31.56-.67.74-1.08.18-.41.27-.85.27-1.32s-.09-.91-.27-1.32c-.18-.41-.42-.77-.74-1.08-.31-.31-.67-.56-1.08-.73-.41-.18-.84-.26-1.31-.26h-1.5v6.78Z" fill="#212e64"/>
        <path d="M206.1,83.35c-.74,0-1.41-.19-2.01-.57-.61-.38-1.09-.89-1.45-1.52-.36-.64-.54-1.34-.54-2.11,0-.59.1-1.13.31-1.64s.49-.96.86-1.34c.36-.39.79-.69,1.28-.91.49-.22,1-.33,1.55-.33.6,0,1.16.12,1.66.36.5.24.94.58,1.3,1.01s.63.93.81,1.5.24,1.18.2,1.83h-6.52c.06.45.21.86.45,1.21.23.35.53.64.9.84.36.21.77.31,1.22.32.48,0,.91-.12,1.3-.37.39-.25.7-.59.94-1.02l1.37.32c-.32.71-.8,1.29-1.45,1.74-.65.45-1.37.68-2.17.68ZM203.49,78.58h5.21c-.04-.45-.19-.86-.43-1.23s-.56-.67-.94-.89c-.38-.22-.79-.34-1.24-.34s-.86.11-1.23.33c-.37.22-.68.51-.92.88-.24.37-.39.78-.45,1.24Z" fill="#212e64"/>
        <path d="M215.45,76.49h-1.81v6.65h-1.35v-6.65s-1.37,0-1.37,0v-1.34h1.38v-2.51s1.34,0,1.34,0v2.51h1.82v1.34Z" fill="#212e64"/>
        <path d="M220.2,83.35c-.74,0-1.41-.19-2.01-.57-.61-.38-1.09-.89-1.45-1.52-.36-.64-.54-1.34-.54-2.11,0-.59.1-1.13.31-1.64s.49-.96.86-1.34c.36-.39.79-.69,1.28-.91.49-.22,1-.33,1.55-.33.6,0,1.16.12,1.66.36.5.24.94.58,1.3,1.01s.63.93.81,1.5.24,1.18.2,1.83h-6.52c.06.45.21.86.45,1.21.23.35.53.64.9.84.36.21.77.31,1.22.32.48,0,.91-.12,1.3-.37.39-.25.7-.59.94-1.02l1.37.32c-.32.71-.8,1.29-1.45,1.74-.65.45-1.37.68-2.17.68ZM217.59,78.58h5.21c-.04-.45-.19-.86-.43-1.23s-.56-.67-.94-.89c-.38-.22-.79-.34-1.24-.34s-.86.11-1.23.33c-.37.22-.68.51-.92.88-.24.37-.39.78-.45,1.24Z" fill="#212e64"/>
        <path d="M230.96,81.03l1.2.65c-.36.51-.82.91-1.38,1.22s-1.16.46-1.81.46c-.74,0-1.41-.19-2.01-.57-.61-.38-1.09-.89-1.45-1.52-.36-.64-.54-1.34-.54-2.11,0-.59.1-1.13.31-1.64s.49-.96.86-1.34c.36-.39.79-.69,1.28-.91.49-.22,1-.33,1.55-.33.65,0,1.25.15,1.81.46.56.3,1.02.71,1.38,1.22l-1.2.65c-.26-.31-.56-.56-.91-.73-.35-.17-.71-.26-1.08-.26-.5,0-.94.13-1.35.4s-.72.61-.96,1.05c-.23.44-.35.91-.35,1.43s.12.99.36,1.43c.24.43.56.78.96,1.04.4.26.85.39,1.34.39.39,0,.76-.09,1.11-.27.35-.18.64-.42.88-.7Z" fill="#212e64"/>
        <path d="M237.74,76.49h-1.81v6.65h-1.35v-6.65s-1.37,0-1.37,0v-1.34h1.38v-2.51s1.34,0,1.34,0v2.51h1.82v1.34Z" fill="#212e64"/>
        <path d="M239.79,73.85c-.21,0-.39-.07-.54-.21-.14-.14-.22-.31-.22-.52s.07-.38.22-.52c.14-.14.32-.21.53-.21s.38.07.53.21.22.31.22.52-.07.38-.21.52c-.14.14-.32.21-.52.21ZM239.1,75.15h1.34v7.99h-1.34v-7.99Z" fill="#212e64"/>
        <path d="M245.78,83.35c-.74,0-1.41-.19-2.01-.57-.61-.38-1.09-.89-1.45-1.52-.36-.64-.54-1.34-.54-2.11,0-.59.1-1.13.31-1.64s.49-.96.86-1.34c.36-.39.79-.69,1.28-.91.49-.22,1-.33,1.55-.33.74,0,1.41.19,2.01.57.6.38,1.09.89,1.45,1.53.36.64.54,1.35.54,2.13,0,.58-.1,1.12-.31,1.63-.21.51-.49.95-.86,1.34-.37.39-.79.69-1.27.91-.48.22-1,.33-1.55.33ZM245.78,82.01c.5,0,.95-.13,1.36-.4.4-.26.72-.61.95-1.05.23-.43.35-.91.35-1.42s-.12-1-.36-1.44c-.24-.44-.56-.79-.96-1.05-.4-.26-.85-.39-1.34-.39s-.95.13-1.35.4c-.4.26-.72.61-.95,1.05-.23.44-.35.91-.35,1.43s.12,1.02.36,1.45c.24.43.56.78.97,1.03.41.25.85.38,1.33.38Z" fill="#212e64"/>
        <path d="M258.18,78.17v4.97h-1.34v-4.68c0-.41-.1-.77-.3-1.1-.2-.33-.46-.59-.79-.79-.33-.19-.7-.29-1.1-.29s-.77.1-1.1.29c-.33.19-.6.46-.8.79-.2.33-.3.7-.3,1.1v4.68h-1.34v-7.99h1.34v1c.28-.37.64-.67,1.07-.89.43-.22.9-.33,1.41-.33.6,0,1.14.15,1.63.44.49.29.88.68,1.18,1.17.29.49.44,1.04.44,1.64Z" fill="#212e64"/>
        <path d="M268.81,83.35c-.76,0-1.47-.15-2.13-.45-.67-.3-1.25-.72-1.76-1.25-.51-.53-.9-1.15-1.19-1.85-.29-.7-.43-1.45-.43-2.25s.14-1.55.43-2.25c.29-.7.68-1.32,1.19-1.85.51-.53,1.09-.95,1.76-1.25.67-.3,1.38-.45,2.13-.45s1.48.15,2.14.45c.67.3,1.25.72,1.76,1.25.51.53.9,1.15,1.19,1.85.29.7.43,1.45.43,2.25s-.14,1.55-.43,2.25c-.29.7-.68,1.32-1.19,1.85-.51.53-1.09.95-1.76,1.25-.67.3-1.38.45-2.14.45ZM268.81,81.4c.49,0,.95-.1,1.38-.3s.81-.48,1.14-.84c.33-.35.58-.76.77-1.23.18-.46.28-.96.28-1.49s-.09-1.02-.28-1.49c-.19-.47-.44-.88-.77-1.23-.33-.35-.71-.63-1.14-.83-.43-.2-.89-.3-1.38-.3s-.95.1-1.38.3c-.43.2-.81.48-1.14.84-.33.35-.58.76-.77,1.23-.18.46-.28.96-.28,1.49s.09,1.03.28,1.5c.19.46.44.87.77,1.23.33.35.71.63,1.14.83.43.2.89.3,1.38.3Z" fill="#212e64"/>
        <path d="M277.74,73.18v1.97h2.34v1.34h-2.34v6.65h-1.34v-6.65h-1.03v-1.34h1.03v-1.97c0-.41.1-.78.3-1.12s.47-.6.81-.8c.34-.2.71-.3,1.12-.3.3,0,.59.06.87.18.28.12.53.3.75.53l-.96.95c-.07-.1-.17-.18-.29-.24-.12-.06-.24-.08-.37-.08-.24,0-.45.09-.62.26-.17.17-.26.38-.26.62Z" fill="#212e64"/>
        <path d="M285.23,83.14l2.17-11.19h1.62l2.73,7.17,2.73-7.17h1.62l2.17,11.19h-1.99l-1.34-6.92-2.52,6.67h-1.34l-2.52-6.67-1.34,6.92h-1.99Z" fill="#212e64"/>
        <path d="M299.86,80.11v-4.96h1.34v4.66c0,.41.1.77.3,1.1.2.33.46.59.8.79.33.19.7.29,1.1.29s.77-.1,1.1-.29c.33-.19.59-.46.79-.79.2-.33.3-.7.3-1.1v-4.66h1.34v7.99s-1.34,0-1.34,0v-1.02c-.29.37-.65.67-1.08.89-.43.22-.9.33-1.4.33-.6,0-1.14-.15-1.63-.44s-.88-.68-1.18-1.17c-.29-.49-.44-1.04-.44-1.64Z" fill="#212e64"/>
        <path d="M308.61,83.14v-11.99h1.34v11.99h-1.34Z" fill="#212e64"/>
        <path d="M316.02,76.49h-1.81v6.65h-1.35v-6.65s-1.37,0-1.37,0v-1.34h1.38v-2.51s1.34,0,1.34,0v2.51h1.82v1.34Z" fill="#212e64"/>
        <path d="M318.06,73.85c-.21,0-.39-.07-.54-.21-.14-.14-.22-.31-.22-.52s.07-.38.22-.52c.14-.14.32-.21.53-.21s.38.07.53.21.22.31.22.52-.07.38-.21.52c-.14.14-.32.21-.52.21ZM317.38,75.15h1.34v7.99h-1.34v-7.99Z" fill="#212e64"/>
        <path d="M320.64,77.68h5.12v1.34h-5.12v-1.34Z" fill="#212e64"/>
        <path d="M327.67,83.14v-11.99h1.34v11.99h-1.34Z" fill="#212e64"/>
        <path d="M337.29,75.15h1.34v7.99h-1.34l-.06-1.35c-.25.46-.6.84-1.04,1.13-.44.29-.96.43-1.57.43s-1.14-.11-1.65-.33c-.51-.22-.96-.53-1.36-.92-.39-.39-.7-.84-.92-1.36-.22-.51-.33-1.06-.33-1.65s.11-1.11.32-1.62c.21-.51.51-.95.89-1.33s.82-.68,1.32-.9c.5-.22,1.04-.32,1.62-.32.63,0,1.18.15,1.65.44.47.3.86.68,1.15,1.15l-.05-1.37ZM334.6,82.05c.53,0,.98-.13,1.37-.39s.68-.61.9-1.05c.21-.44.32-.93.32-1.46s-.11-1.04-.32-1.48c-.21-.44-.51-.79-.9-1.05s-.84-.39-1.36-.39-1.01.13-1.44.39c-.43.26-.77.61-1.03,1.05-.25.44-.38.93-.38,1.47s.13,1.03.39,1.47c.26.44.61.79,1.04,1.05.43.26.9.39,1.42.39Z" fill="#212e64"/>
        <path d="M345.46,75.15h1.42l-4.37,11.99h-1.42l1.45-4-2.87-7.99h1.47l2.07,6.15,2.25-6.15Z" fill="#212e64"/>
        <path d="M351.44,83.35c-.74,0-1.41-.19-2.01-.57-.61-.38-1.09-.89-1.45-1.52-.36-.64-.54-1.34-.54-2.11,0-.59.1-1.13.31-1.64s.49-.96.86-1.34c.36-.39.79-.69,1.28-.91.49-.22,1-.33,1.55-.33.6,0,1.16.12,1.66.36.5.24.94.58,1.3,1.01s.63.93.81,1.5.24,1.18.2,1.83h-6.52c.06.45.21.86.45,1.21.23.35.53.64.9.84.36.21.77.31,1.22.32.48,0,.91-.12,1.3-.37.39-.25.7-.59.94-1.02l1.37.32c-.32.71-.8,1.29-1.45,1.74-.65.45-1.37.68-2.17.68ZM348.83,78.58h5.21c-.04-.45-.19-.86-.43-1.23s-.56-.67-.94-.89c-.38-.22-.79-.34-1.24-.34s-.86.11-1.23.33c-.37.22-.68.51-.92.88-.24.37-.39.78-.45,1.24Z" fill="#212e64"/>
        <path d="M356.76,83.14v-7.99h1.34v1c.28-.37.64-.67,1.07-.89.43-.22.9-.33,1.41-.33.31,0,.61.04.9.12l-.54,1.34c-.22-.07-.43-.1-.64-.1-.4,0-.77.1-1.1.29-.33.19-.6.46-.8.79-.2.33-.3.7-.3,1.1v4.68h-1.34Z" fill="#212e64"/>
        <path d="M366.67,83.14v-11.19h2.21v11.19h-2.21Z" fill="#212e64"/>
        <path d="M370.75,83.14v-11.19h2.38l4.37,7.2v-7.2h2.21v11.19h-2.38l-4.36-7.2v7.2h-2.21Z" fill="#212e64"/>
        <path d="M371.03,83.14v-11.19h1.45l5.59,8.76v-8.76h1.34v11.19h-1.45l-5.6-8.76v8.76h-1.34Z" fill="#212e64"/>
        <path d="M385.48,76.49h-1.81v6.65h-1.35v-6.65s-1.37,0-1.37,0v-1.34h1.38v-2.51s1.34,0,1.34,0v2.51h1.82v1.34Z" fill="#212e64"/>
        <path d="M390.22,83.35c-.74,0-1.41-.19-2.01-.57-.61-.38-1.09-.89-1.45-1.52-.36-.64-.54-1.34-.54-2.11,0-.59.1-1.13.31-1.64s.49-.96.86-1.34c.36-.39.79-.69,1.28-.91.49-.22,1-.33,1.55-.33.6,0,1.16.12,1.66.36.5.24.94.58,1.3,1.01s.63.93.81,1.5.24,1.18.2,1.83h-6.52c.06.45.21.86.45,1.21.23.35.53.64.9.84.36.21.77.31,1.22.32.48,0,.91-.12,1.3-.37.39-.25.7-.59.94-1.02l1.37.32c-.32.71-.8,1.29-1.45,1.74-.65.45-1.37.68-2.17.68ZM387.62,78.58h5.21c-.04-.45-.19-.86-.43-1.23s-.56-.67-.94-.89c-.38-.22-.79-.34-1.24-.34s-.86.11-1.23.33c-.37.22-.68.51-.92.88-.24.37-.39.78-.45,1.24Z" fill="#212e64"/>
        <path d="M395.54,83.14v-7.99h1.34v1c.28-.37.64-.67,1.07-.89.43-.22.9-.33,1.41-.33.31,0,.61.04.9.12l-.54,1.34c-.22-.07-.43-.1-.64-.1-.4,0-.77.1-1.1.29-.33.19-.6.46-.8.79-.2.33-.3.7-.3,1.1v4.68h-1.34Z" fill="#212e64"/>
        <path d="M406.33,81.03l1.2.65c-.36.51-.82.91-1.38,1.22s-1.16.46-1.81.46c-.74,0-1.41-.19-2.01-.57-.61-.38-1.09-.89-1.45-1.52-.36-.64-.54-1.34-.54-2.11,0-.59.1-1.13.31-1.64s.49-.96.86-1.34c.36-.39.79-.69,1.28-.91.49-.22,1-.33,1.55-.33.65,0,1.25.15,1.81.46.56.3,1.02.71,1.38,1.22l-1.2.65c-.26-.31-.56-.56-.91-.73-.35-.17-.71-.26-1.08-.26-.5,0-.94.13-1.35.4s-.72.61-.96,1.05c-.23.44-.35.91-.35,1.43s.12.99.36,1.43c.24.43.56.78.96,1.04.4.26.85.39,1.34.39.39,0,.76-.09,1.11-.27.35-.18.64-.42.88-.7Z" fill="#212e64"/>
        <path d="M412.34,83.35c-.74,0-1.41-.19-2.01-.57-.61-.38-1.09-.89-1.45-1.52-.36-.64-.54-1.34-.54-2.11,0-.59.1-1.13.31-1.64s.49-.96.86-1.34c.36-.39.79-.69,1.28-.91.49-.22,1-.33,1.55-.33.74,0,1.41.19,2.01.57.6.38,1.09.89,1.45,1.53.36.64.54,1.35.54,2.13,0,.58-.1,1.12-.31,1.63-.21.51-.49.95-.86,1.34-.37.39-.79.69-1.27.91-.48.22-1,.33-1.55.33ZM412.34,82.01c.5,0,.95-.13,1.36-.4.4-.26.72-.61.95-1.05.23-.43.35-.91.35-1.42s-.12-1-.36-1.44c-.24-.44-.56-.79-.96-1.05-.4-.26-.85-.39-1.34-.39s-.95.13-1.35.4c-.4.26-.72.61-.95,1.05-.23.44-.35.91-.35,1.43s.12,1.02.36,1.45c.24.43.56.78.97,1.03.41.25.85.38,1.33.38Z" fill="#212e64"/>
        <path d="M424.74,78.17v4.97h-1.34v-4.68c0-.41-.1-.77-.3-1.1-.2-.33-.46-.59-.79-.79-.33-.19-.7-.29-1.1-.29s-.77.1-1.1.29c-.33.19-.6.46-.8.79-.2.33-.3.7-.3,1.1v4.68h-1.34v-7.99h1.34v1c.28-.37.64-.67,1.07-.89.43-.22.9-.33,1.41-.33.6,0,1.14.15,1.63.44.49.29.88.68,1.18,1.17.29.49.44,1.04.44,1.64Z" fill="#212e64"/>
        <path d="M433.41,78.17v4.97h-1.34v-4.68c0-.41-.1-.77-.3-1.1-.2-.33-.46-.59-.79-.79-.33-.19-.7-.29-1.1-.29s-.77.1-1.1.29c-.33.19-.6.46-.8.79-.2.33-.3.7-.3,1.1v4.68h-1.34v-7.99h1.34v1c.28-.37.64-.67,1.07-.89.43-.22.9-.33,1.41-.33.6,0,1.14.15,1.63.44.49.29.88.68,1.18,1.17.29.49.44,1.04.44,1.64Z" fill="#212e64"/>
        <path d="M438.36,83.35c-.74,0-1.41-.19-2.01-.57-.61-.38-1.09-.89-1.45-1.52-.36-.64-.54-1.34-.54-2.11,0-.59.1-1.13.31-1.64s.49-.96.86-1.34c.36-.39.79-.69,1.28-.91.49-.22,1-.33,1.55-.33.6,0,1.16.12,1.66.36.5.24.94.58,1.3,1.01s.63.93.81,1.5.24,1.18.2,1.83h-6.52c.06.45.21.86.45,1.21.23.35.53.64.9.84.36.21.77.31,1.22.32.48,0,.91-.12,1.3-.37.39-.25.7-.59.94-1.02l1.37.32c-.32.71-.8,1.29-1.45,1.74-.65.45-1.37.68-2.17.68ZM435.76,78.58h5.21c-.04-.45-.19-.86-.43-1.23s-.56-.67-.94-.89c-.38-.22-.79-.34-1.24-.34s-.86.11-1.23.33c-.37.22-.68.51-.92.88-.24.37-.39.78-.45,1.24Z" fill="#212e64"/>
        <path d="M449.13,81.03l1.2.65c-.36.51-.82.91-1.38,1.22s-1.16.46-1.81.46c-.74,0-1.41-.19-2.01-.57-.61-.38-1.09-.89-1.45-1.52-.36-.64-.54-1.34-.54-2.11,0-.59.1-1.13.31-1.64s.49-.96.86-1.34c.36-.39.79-.69,1.28-.91.49-.22,1-.33,1.55-.33.65,0,1.25.15,1.81.46.56.3,1.02.71,1.38,1.22l-1.2.65c-.26-.31-.56-.56-.91-.73-.35-.17-.71-.26-1.08-.26-.5,0-.94.13-1.35.4s-.72.61-.96,1.05c-.23.44-.35.91-.35,1.43s.12.99.36,1.43c.24.43.56.78.96,1.04.4.26.85.39,1.34.39.39,0,.76-.09,1.11-.27.35-.18.64-.42.88-.7Z" fill="#212e64"/>
        <path d="M455.91,76.49h-1.81v6.65h-1.35v-6.65s-1.37,0-1.37,0v-1.34h1.38v-2.51s1.34,0,1.34,0v2.51h1.82v1.34Z" fill="#212e64"/>
        <path d="M460.65,83.35c-.74,0-1.41-.19-2.01-.57-.61-.38-1.09-.89-1.45-1.52-.36-.64-.54-1.34-.54-2.11,0-.59.1-1.13.31-1.64s.49-.96.86-1.34c.36-.39.79-.69,1.28-.91.49-.22,1-.33,1.55-.33.6,0,1.16.12,1.66.36.5.24.94.58,1.3,1.01s.63.93.81,1.5.24,1.18.2,1.83h-6.52c.06.45.21.86.45,1.21.23.35.53.64.9.84.36.21.77.31,1.22.32.48,0,.91-.12,1.3-.37.39-.25.7-.59.94-1.02l1.37.32c-.32.71-.8,1.29-1.45,1.74-.65.45-1.37.68-2.17.68ZM458.05,78.58h5.21c-.04-.45-.19-.86-.43-1.23s-.56-.67-.94-.89c-.38-.22-.79-.34-1.24-.34s-.86.11-1.23.33c-.37.22-.68.51-.92.88-.24.37-.39.78-.45,1.24Z" fill="#212e64"/>
        <path d="M472.35,71.15h1.34v11.99h-1.34v-1.36c-.27.47-.64.85-1.1,1.14-.46.29-1,.43-1.62.43-.58,0-1.12-.11-1.63-.33-.51-.22-.95-.52-1.34-.91s-.69-.83-.91-1.34-.33-1.05-.33-1.63.11-1.13.33-1.63c.22-.51.52-.96.91-1.34s.83-.69,1.34-.91c.51-.22,1.05-.33,1.63-.33.62,0,1.16.14,1.62.43.46.29.82.67,1.1,1.14v-5.35ZM469.65,82.05c.53,0,.98-.13,1.37-.39s.68-.61.9-1.05c.21-.44.32-.93.32-1.46s-.11-1.04-.32-1.48c-.21-.44-.51-.79-.9-1.05s-.84-.39-1.36-.39-1.01.13-1.44.39-.77.61-1.03,1.05c-.26.44-.38.93-.38,1.47s.13,1.03.39,1.47c.26.44.61.79,1.04,1.05.43.26.9.39,1.42.39Z" fill="#212e64"/>
        <path d="M197.03,102.54c-.76,0-1.47-.15-2.13-.45-.67-.3-1.25-.72-1.76-1.25-.51-.53-.9-1.15-1.19-1.85-.29-.7-.43-1.45-.43-2.25s.14-1.55.43-2.25c.29-.7.68-1.32,1.19-1.85.51-.53,1.09-.95,1.76-1.25.67-.3,1.38-.45,2.13-.45s1.48.15,2.14.45c.67.3,1.25.72,1.76,1.25.51.53.9,1.15,1.19,1.85.29.7.43,1.45.43,2.25s-.14,1.55-.43,2.25c-.29.7-.68,1.32-1.19,1.85-.51.53-1.09.95-1.76,1.25-.67.3-1.38.45-2.14.45ZM197.03,100.33c.45,0,.88-.09,1.28-.28.4-.19.75-.45,1.06-.78.3-.33.54-.71.72-1.14s.26-.9.26-1.39-.09-.96-.26-1.39-.41-.82-.72-1.14c-.3-.33-.66-.59-1.06-.78-.4-.19-.83-.28-1.28-.28s-.88.09-1.28.28c-.4.19-.75.45-1.06.78-.3.33-.54.71-.72,1.14-.17.43-.26.9-.26,1.39s.09.96.26,1.39c.17.43.41.82.72,1.14.3.33.66.59,1.06.78.4.19.83.28,1.28.28Z" fill="#212e64"/>
        <path d="M209.66,100.22l1.2.65c-.36.51-.82.91-1.38,1.22s-1.16.46-1.81.46c-.74,0-1.41-.19-2.01-.57-.61-.38-1.09-.89-1.45-1.52-.36-.64-.54-1.34-.54-2.11,0-.59.1-1.13.31-1.64s.49-.96.86-1.34c.36-.39.79-.69,1.28-.91.49-.22,1-.33,1.55-.33.65,0,1.25.15,1.81.46.56.3,1.02.71,1.38,1.22l-1.2.65c-.26-.31-.56-.56-.91-.73-.35-.17-.71-.26-1.08-.26-.5,0-.94.13-1.35.4s-.72.61-.96,1.05c-.23.44-.35.91-.35,1.43s.12.99.36,1.43c.24.43.56.78.96,1.04.4.26.85.39,1.34.39.39,0,.76-.09,1.11-.27.35-.18.64-.42.88-.7Z" fill="#212e64"/>
        <path d="M217.66,100.22l1.2.65c-.36.51-.82.91-1.38,1.22s-1.16.46-1.81.46c-.74,0-1.41-.19-2.01-.57-.61-.38-1.09-.89-1.45-1.52-.36-.64-.54-1.34-.54-2.11,0-.59.1-1.13.31-1.64s.49-.96.86-1.34c.36-.39.79-.69,1.28-.91.49-.22,1-.33,1.55-.33.65,0,1.25.15,1.81.46.56.3,1.02.71,1.38,1.22l-1.2.65c-.26-.31-.56-.56-.91-.73-.35-.17-.71-.26-1.08-.26-.5,0-.94.13-1.35.4s-.72.61-.96,1.05c-.23.44-.35.91-.35,1.43s.12.99.36,1.43c.24.43.56.78.96,1.04.4.26.85.39,1.34.39.39,0,.76-.09,1.11-.27.35-.18.64-.42.88-.7Z" fill="#212e64"/>
        <path d="M219.88,99.29v-4.96h1.34v4.66c0,.41.1.77.3,1.1.2.33.46.59.8.79.33.19.7.29,1.1.29s.77-.1,1.1-.29c.33-.19.59-.46.79-.79.2-.33.3-.7.3-1.1v-4.66h1.34v7.99s-1.34,0-1.34,0v-1.02c-.29.37-.65.67-1.08.89-.43.22-.9.33-1.4.33-.6,0-1.14-.15-1.63-.44s-.88-.68-1.18-1.17c-.29-.49-.44-1.04-.44-1.64Z" fill="#212e64"/>
        <path d="M228.54,102.33v-7.99h1.34v1c.28-.37.64-.67,1.07-.89.43-.22.9-.33,1.41-.33.31,0,.61.04.9.12l-.54,1.34c-.22-.07-.43-.1-.64-.1-.4,0-.77.1-1.1.29-.33.19-.6.46-.8.79-.2.33-.3.7-.3,1.1v4.68h-1.34Z" fill="#212e64"/>
        <path d="M234.27,102.33v-7.99h1.34v1c.28-.37.64-.67,1.07-.89.43-.22.9-.33,1.41-.33.31,0,.61.04.9.12l-.54,1.34c-.22-.07-.43-.1-.64-.1-.4,0-.77.1-1.1.29-.33.19-.6.46-.8.79-.2.33-.3.7-.3,1.1v4.68h-1.34Z" fill="#212e64"/>
        <path d="M243.08,102.54c-.74,0-1.41-.19-2.01-.57-.61-.38-1.09-.89-1.45-1.52-.36-.64-.54-1.34-.54-2.11,0-.59.1-1.13.31-1.64s.49-.96.86-1.34c.36-.39.79-.69,1.28-.91.49-.22,1-.33,1.55-.33.6,0,1.16.12,1.66.36.5.24.94.58,1.3,1.01s.63.93.81,1.5.24,1.18.2,1.83h-6.52c.06.45.21.86.45,1.21.23.35.53.64.9.84.36.21.77.31,1.22.32.48,0,.91-.12,1.3-.37.39-.25.7-.59.94-1.02l1.37.32c-.32.71-.8,1.29-1.45,1.74-.65.45-1.37.68-2.17.68ZM240.47,97.77h5.21c-.04-.45-.19-.86-.43-1.23s-.56-.67-.94-.89c-.38-.22-.79-.34-1.24-.34s-.86.11-1.23.33c-.37.22-.68.51-.92.88-.24.37-.39.78-.45,1.24Z" fill="#212e64"/>
        <path d="M255.46,97.36v4.97h-1.34v-4.68c0-.41-.1-.77-.3-1.1-.2-.33-.46-.59-.79-.79-.33-.19-.7-.29-1.1-.29s-.77.1-1.1.29c-.33.19-.6.46-.8.79-.2.33-.3.7-.3,1.1v4.68h-1.34v-7.99h1.34v1c.28-.37.64-.67,1.07-.89.43-.22.9-.33,1.41-.33.6,0,1.14.15,1.63.44.49.29.88.68,1.18,1.17.29.49.44,1.04.44,1.64Z" fill="#212e64"/>
        <path d="M262.41,100.22l1.2.65c-.36.51-.82.91-1.38,1.22s-1.16.46-1.81.46c-.74,0-1.41-.19-2.01-.57-.61-.38-1.09-.89-1.45-1.52-.36-.64-.54-1.34-.54-2.11,0-.59.1-1.13.31-1.64s.49-.96.86-1.34c.36-.39.79-.69,1.28-.91.49-.22,1-.33,1.55-.33.65,0,1.25.15,1.81.46.56.3,1.02.71,1.38,1.22l-1.2.65c-.26-.31-.56-.56-.91-.73-.35-.17-.71-.26-1.08-.26-.5,0-.94.13-1.35.4s-.72.61-.96,1.05c-.23.44-.35.91-.35,1.43s.12.99.36,1.43c.24.43.56.78.96,1.04.4.26.85.39,1.34.39.39,0,.76-.09,1.11-.27.35-.18.64-.42.88-.7Z" fill="#212e64"/>
        <path d="M268.42,102.54c-.74,0-1.41-.19-2.01-.57-.61-.38-1.09-.89-1.45-1.52-.36-.64-.54-1.34-.54-2.11,0-.59.1-1.13.31-1.64s.49-.96.86-1.34c.36-.39.79-.69,1.28-.91.49-.22,1-.33,1.55-.33.6,0,1.16.12,1.66.36.5.24.94.58,1.3,1.01s.63.93.81,1.5.24,1.18.2,1.83h-6.52c.06.45.21.86.45,1.21.23.35.53.64.9.84.36.21.77.31,1.22.32.48,0,.91-.12,1.3-.37.39-.25.7-.59.94-1.02l1.37.32c-.32.71-.8,1.29-1.45,1.74-.65.45-1.37.68-2.17.68ZM265.81,97.77h5.21c-.04-.45-.19-.86-.43-1.23s-.56-.67-.94-.89c-.38-.22-.79-.34-1.24-.34s-.86.11-1.23.33c-.37.22-.68.51-.92.88-.24.37-.39.78-.45,1.24Z" fill="#212e64"/>
        <path d="M276.2,102.48c-.43-.02-.85-.1-1.26-.24s-.76-.35-1.07-.6c-.31-.25-.53-.54-.67-.88l1.15-.5c.08.18.22.35.43.51s.45.29.72.38c.27.1.55.14.82.14.29,0,.57-.05.82-.14.26-.09.46-.22.63-.4.16-.18.24-.39.24-.64,0-.27-.09-.48-.27-.63-.18-.15-.4-.27-.67-.36-.27-.09-.54-.17-.82-.25-.55-.14-1.04-.31-1.47-.5-.43-.19-.77-.44-1.02-.74s-.37-.69-.37-1.16c0-.5.14-.92.41-1.29s.64-.64,1.08-.84c.45-.2.93-.3,1.44-.3.65,0,1.23.14,1.77.42s.93.65,1.19,1.13l-1.08.63c-.09-.19-.23-.36-.42-.51-.19-.15-.4-.26-.64-.35s-.49-.13-.74-.14c-.31-.01-.6.03-.87.12-.27.09-.49.23-.65.41-.16.18-.24.41-.24.68s.09.47.26.61c.17.14.4.25.68.33.28.08.58.18.92.28.48.15.94.33,1.36.54s.76.46,1.02.76c.26.3.39.68.38,1.13,0,.49-.15.92-.44,1.28-.29.37-.67.64-1.14.84-.47.19-.97.28-1.5.26Z" fill="#212e64"/>
        <path d="M286.31,92.36v1.97h2.34v1.34h-2.34v6.65h-1.34v-6.65h-1.03v-1.34h1.03v-1.97c0-.41.1-.78.3-1.12s.47-.6.81-.8c.34-.2.71-.3,1.12-.3.3,0,.59.06.87.18.28.12.53.3.75.53l-.96.95c-.07-.1-.17-.18-.29-.24-.12-.06-.24-.08-.37-.08-.24,0-.45.09-.62.26-.17.17-.26.38-.26.62Z" fill="#212e64"/>
        <path d="M293.29,102.54c-.74,0-1.41-.19-2.01-.57-.61-.38-1.09-.89-1.45-1.52-.36-.64-.54-1.34-.54-2.11,0-.59.1-1.13.31-1.64s.49-.96.86-1.34c.36-.39.79-.69,1.28-.91.49-.22,1-.33,1.55-.33.74,0,1.41.19,2.01.57.6.38,1.09.89,1.45,1.53.36.64.54,1.35.54,2.13,0,.58-.1,1.12-.31,1.63-.21.51-.49.95-.86,1.34-.37.39-.79.69-1.27.91-.48.22-1,.33-1.55.33ZM293.29,101.2c.5,0,.95-.13,1.36-.4.4-.26.72-.61.95-1.05.23-.43.35-.91.35-1.42s-.12-1-.36-1.44c-.24-.44-.56-.79-.96-1.05-.4-.26-.85-.39-1.34-.39s-.95.13-1.35.4c-.4.26-.72.61-.95,1.05-.23.44-.35.91-.35,1.43s.12,1.02.36,1.45c.24.43.56.78.97,1.03.41.25.85.38,1.33.38Z" fill="#212e64"/>
        <path d="M298.62,102.33v-7.99h1.34v1c.28-.37.64-.67,1.07-.89.43-.22.9-.33,1.41-.33.31,0,.61.04.9.12l-.54,1.34c-.22-.07-.43-.1-.64-.1-.4,0-.77.1-1.1.29-.33.19-.6.46-.8.79-.2.33-.3.7-.3,1.1v4.68h-1.34Z" fill="#212e64"/>
        <path d="M312.36,102.54c-.63,0-1.23-.1-1.8-.3-.57-.2-1.07-.48-1.5-.86-.43-.37-.74-.82-.92-1.33l2.07-.77c.06.18.2.35.4.51s.46.29.76.38c.3.1.64.15,1,.15s.67-.05.98-.16c.31-.1.55-.25.74-.44.19-.19.28-.41.28-.66s-.1-.46-.3-.62c-.2-.17-.45-.3-.76-.4s-.63-.17-.95-.23c-.8-.12-1.53-.31-2.16-.57-.64-.26-1.14-.63-1.51-1.1-.37-.47-.55-1.06-.55-1.78s.2-1.3.59-1.81c.39-.52.91-.92,1.55-1.21.64-.29,1.34-.43,2.08-.43.62,0,1.22.1,1.79.3.58.2,1.08.48,1.51.86s.74.82.92,1.34l-2.07.75c-.06-.18-.2-.35-.4-.5-.2-.15-.46-.28-.76-.38-.3-.1-.63-.14-.99-.14-.34,0-.66.05-.97.15-.31.11-.56.25-.75.44-.19.19-.29.4-.29.64,0,.31.09.55.28.71s.43.27.73.34c.3.07.64.13,1.01.18.76.11,1.46.31,2.09.6.64.29,1.15.66,1.54,1.14s.58,1.05.58,1.72-.19,1.3-.58,1.81c-.39.52-.9.92-1.54,1.21-.64.29-1.34.43-2.09.43Z" fill="#212e64"/>
        <path d="M319.69,106.33h-1.34v-11.99h1.34v1.37c.27-.47.63-.85,1.09-1.14.45-.29.99-.44,1.61-.44.58,0,1.13.11,1.63.33.51.22.96.52,1.34.91s.68.83.9,1.34c.22.51.33,1.05.33,1.63s-.11,1.13-.33,1.64c-.22.51-.52.96-.9,1.35s-.83.69-1.34.91c-.51.22-1.05.33-1.63.33-.62,0-1.16-.15-1.61-.44-.45-.29-.82-.67-1.09-1.14v5.35ZM322.37,95.43c-.52,0-.97.13-1.36.39-.39.26-.69.61-.9,1.05-.21.44-.32.92-.32,1.46s.11,1.02.32,1.46c.21.44.51.79.9,1.06.39.26.84.39,1.36.39s.99-.13,1.42-.39c.43-.26.78-.61,1.04-1.05.26-.44.39-.93.39-1.48s-.13-1.02-.38-1.46c-.26-.44-.6-.79-1.03-1.05-.43-.26-.91-.39-1.44-.39Z" fill="#212e64"/>
        <path d="M334.3,94.34h1.34v7.99h-1.34l-.06-1.35c-.25.46-.6.84-1.04,1.13-.44.29-.96.43-1.57.43s-1.14-.11-1.65-.33c-.51-.22-.96-.53-1.36-.92-.39-.39-.7-.84-.92-1.36-.22-.51-.33-1.06-.33-1.65s.11-1.11.32-1.62c.21-.51.51-.95.89-1.33s.82-.68,1.32-.9c.5-.22,1.04-.32,1.62-.32.63,0,1.18.15,1.65.44.47.3.86.68,1.15,1.15l-.05-1.37ZM331.61,101.24c.53,0,.98-.13,1.37-.39s.68-.61.9-1.05c.21-.44.32-.93.32-1.46s-.11-1.04-.32-1.48c-.21-.44-.51-.79-.9-1.05s-.84-.39-1.36-.39-1.01.13-1.44.39c-.43.26-.77.61-1.03,1.05-.25.44-.38.93-.38,1.47s.13,1.03.39,1.47c.26.44.61.79,1.04,1.05.43.26.9.39,1.42.39Z" fill="#212e64"/>
        <path d="M341.38,95.68h-1.81v6.65h-1.35v-6.65s-1.37,0-1.37,0v-1.34h1.38v-2.51s1.34,0,1.34,0v2.51h1.82v1.34Z" fill="#212e64"/>
        <path d="M343.43,93.03c-.21,0-.39-.07-.54-.21-.14-.14-.22-.31-.22-.52s.07-.38.22-.52c.14-.14.32-.21.53-.21s.38.07.53.21.22.31.22.52-.07.38-.21.52c-.14.14-.32.21-.52.21ZM342.74,94.34h1.34v7.99h-1.34v-7.99Z" fill="#212e64"/>
        <path d="M352.33,94.34h1.34v7.99h-1.34l-.06-1.35c-.25.46-.6.84-1.04,1.13-.44.29-.96.43-1.57.43s-1.14-.11-1.65-.33c-.51-.22-.96-.53-1.36-.92-.39-.39-.7-.84-.92-1.36-.22-.51-.33-1.06-.33-1.65s.11-1.11.32-1.62c.21-.51.51-.95.89-1.33s.82-.68,1.32-.9c.5-.22,1.04-.32,1.62-.32.63,0,1.18.15,1.65.44.47.3.86.68,1.15,1.15l-.05-1.37ZM349.64,101.24c.53,0,.98-.13,1.37-.39s.68-.61.9-1.05c.21-.44.32-.93.32-1.46s-.11-1.04-.32-1.48c-.21-.44-.51-.79-.9-1.05s-.84-.39-1.36-.39-1.01.13-1.44.39c-.43.26-.77.61-1.03,1.05-.25.44-.38.93-.38,1.47s.13,1.03.39,1.47c.26.44.61.79,1.04,1.05.43.26.9.39,1.42.39Z" fill="#212e64"/>
        <path d="M355.36,102.33v-11.99h1.34v11.99h-1.34Z" fill="#212e64"/>
        <path d="M362.46,102.33v-11.19h7.08v2.21h-4.88v1.89h3.81v2.21h-3.81v2.69h4.88v2.21h-7.08Z" fill="#212e64"/>
        <path d="M370.98,102.33l2.93-4.01-2.91-4h1.65l2.09,2.85,2.08-2.85h1.65l-2.91,4,2.93,4.01h-1.65l-2.09-2.88-2.1,2.88h-1.65Z" fill="#212e64"/>
        <path d="M384.23,95.68h-1.81v6.65h-1.35v-6.65s-1.37,0-1.37,0v-1.34h1.38v-2.51s1.34,0,1.34,0v2.51h1.82v1.34Z" fill="#212e64"/>
        <path d="M385.66,102.33v-7.99h1.34v1c.28-.37.64-.67,1.07-.89.43-.22.9-.33,1.41-.33.31,0,.61.04.9.12l-.54,1.34c-.22-.07-.43-.1-.64-.1-.4,0-.77.1-1.1.29-.33.19-.6.46-.8.79-.2.33-.3.7-.3,1.1v4.68h-1.34Z" fill="#212e64"/>
        <path d="M394.46,102.54c-.74,0-1.41-.19-2.01-.57-.61-.38-1.09-.89-1.45-1.52-.36-.64-.54-1.34-.54-2.11,0-.59.1-1.13.31-1.64s.49-.96.86-1.34c.36-.39.79-.69,1.28-.91.49-.22,1-.33,1.55-.33.6,0,1.16.12,1.66.36.5.24.94.58,1.3,1.01s.63.93.81,1.5.24,1.18.2,1.83h-6.52c.06.45.21.86.45,1.21.23.35.53.64.9.84.36.21.77.31,1.22.32.48,0,.91-.12,1.3-.37.39-.25.7-.59.94-1.02l1.37.32c-.32.71-.8,1.29-1.45,1.74-.65.45-1.37.68-2.17.68ZM391.85,97.77h5.21c-.04-.45-.19-.86-.43-1.23s-.56-.67-.94-.89c-.38-.22-.79-.34-1.24-.34s-.86.11-1.23.33c-.37.22-.68.51-.92.88-.24.37-.39.78-.45,1.24Z" fill="#212e64"/>
        <path d="M399.78,102.33v-7.99h1.34v1c.28-.37.64-.67,1.07-.89.43-.22.9-.33,1.4-.33.59,0,1.13.14,1.62.43.49.29.88.67,1.16,1.14.28-.47.67-.86,1.16-1.14.49-.29,1.02-.43,1.61-.43s1.15.15,1.64.44.88.68,1.17,1.17c.29.49.44,1.04.44,1.64v4.97h-1.34v-4.65c0-.39-.1-.76-.29-1.1-.19-.34-.45-.6-.78-.81-.33-.2-.68-.3-1.08-.3s-.75.09-1.08.28c-.33.19-.58.45-.78.78-.19.33-.29.71-.29,1.14v4.65h-1.34v-4.65c0-.43-.1-.81-.29-1.14-.19-.33-.45-.59-.78-.78-.33-.19-.69-.28-1.08-.28s-.75.1-1.08.3c-.33.2-.59.47-.78.81-.19.34-.29.7-.29,1.1v4.65h-1.34Z" fill="#212e64"/>
        <path d="M417.34,102.54c-.74,0-1.41-.19-2.01-.57-.61-.38-1.09-.89-1.45-1.52-.36-.64-.54-1.34-.54-2.11,0-.59.1-1.13.31-1.64s.49-.96.86-1.34c.36-.39.79-.69,1.28-.91.49-.22,1-.33,1.55-.33.6,0,1.16.12,1.66.36.5.24.94.58,1.3,1.01s.63.93.81,1.5.24,1.18.2,1.83h-6.52c.06.45.21.86.45,1.21.23.35.53.64.9.84.36.21.77.31,1.22.32.48,0,.91-.12,1.3-.37.39-.25.7-.59.94-1.02l1.37.32c-.32.71-.8,1.29-1.45,1.74-.65.45-1.37.68-2.17.68ZM414.73,97.77h5.21c-.04-.45-.19-.86-.43-1.23s-.56-.67-.94-.89c-.38-.22-.79-.34-1.24-.34s-.86.11-1.23.33c-.37.22-.68.51-.92.88-.24.37-.39.78-.45,1.24Z" fill="#212e64"/>
        <path d="M426.6,102.33v-11.19h7.08v2.21h-4.88v1.89h3.81v2.21h-3.81v2.69h4.88v2.21h-7.08Z" fill="#212e64"/>
        <path d="M439.59,102.33h-1.72l-2.92-8.01h1.43l2.34,6.45,2.34-6.45h1.43l-2.91,8.01Z" fill="#212e64"/>
        <path d="M447,102.54c-.74,0-1.41-.19-2.01-.57-.61-.38-1.09-.89-1.45-1.52-.36-.64-.54-1.34-.54-2.11,0-.59.1-1.13.31-1.64s.49-.96.86-1.34c.36-.39.79-.69,1.28-.91.49-.22,1-.33,1.55-.33.6,0,1.16.12,1.66.36.5.24.94.58,1.3,1.01s.63.93.81,1.5.24,1.18.2,1.83h-6.52c.06.45.21.86.45,1.21.23.35.53.64.9.84.36.21.77.31,1.22.32.48,0,.91-.12,1.3-.37.39-.25.7-.59.94-1.02l1.37.32c-.32.71-.8,1.29-1.45,1.74-.65.45-1.37.68-2.17.68ZM444.39,97.77h5.21c-.04-.45-.19-.86-.43-1.23s-.56-.67-.94-.89c-.38-.22-.79-.34-1.24-.34s-.86.11-1.23.33c-.37.22-.68.51-.92.88-.24.37-.39.78-.45,1.24Z" fill="#212e64"/>
        <path d="M459.38,97.36v4.97h-1.34v-4.68c0-.41-.1-.77-.3-1.1-.2-.33-.46-.59-.79-.79-.33-.19-.7-.29-1.1-.29s-.77.1-1.1.29c-.33.19-.6.46-.8.79-.2.33-.3.7-.3,1.1v4.68h-1.34v-7.99h1.34v1c.28-.37.64-.67,1.07-.89.43-.22.9-.33,1.41-.33.6,0,1.14.15,1.63.44.49.29.88.68,1.18,1.17.29.49.44,1.04.44,1.64Z" fill="#212e64"/>
        <path d="M465.12,95.68h-1.81v6.65h-1.35v-6.65s-1.37,0-1.37,0v-1.34h1.38v-2.51s1.34,0,1.34,0v2.51h1.82v1.34Z" fill="#212e64"/>
        <path d="M468.92,102.48c-.43-.02-.85-.1-1.26-.24s-.76-.35-1.07-.6c-.31-.25-.53-.54-.67-.88l1.15-.5c.08.18.22.35.43.51s.45.29.72.38c.27.1.55.14.82.14.29,0,.57-.05.82-.14.26-.09.46-.22.63-.4.16-.18.24-.39.24-.64,0-.27-.09-.48-.27-.63-.18-.15-.4-.27-.67-.36-.27-.09-.54-.17-.82-.25-.55-.14-1.04-.31-1.47-.5-.43-.19-.77-.44-1.02-.74s-.37-.69-.37-1.16c0-.5.14-.92.41-1.29s.64-.64,1.08-.84c.45-.2.93-.3,1.44-.3.65,0,1.23.14,1.77.42s.93.65,1.19,1.13l-1.08.63c-.09-.19-.23-.36-.42-.51-.19-.15-.4-.26-.64-.35s-.49-.13-.74-.14c-.31-.01-.6.03-.87.12-.27.09-.49.23-.65.41-.16.18-.24.41-.24.68s.09.47.26.61c.17.14.4.25.68.33.28.08.58.18.92.28.48.15.94.33,1.36.54s.76.46,1.02.76c.26.3.39.68.38,1.13,0,.49-.15.92-.44,1.28-.29.37-.67.64-1.14.84-.47.19-.97.28-1.5.26Z" fill="#212e64"/>
      </g>
    </g>
  </g>
</svg>